<?xml version="1.0" standalone="no"?>
<!DOCTYPE svg PUBLIC "-//W3C//DTD SVG 20010904//EN"
 "http://www.w3.org/TR/2001/REC-SVG-20010904/DTD/svg10.dtd">
<svg version="1.0" xmlns="http://www.w3.org/2000/svg"
 width="375.000000pt" height="382.000000pt" viewBox="0 0 375.000000 382.000000"
 preserveAspectRatio="xMidYMid meet">

<g transform="translate(0.000000,382.000000) scale(0.100000,-0.100000)"
fill="#ee5e67" stroke="none">
<path d="M1815 2684 c-120 -80 -159 -172 -125 -296 15 -51 67 -117 113 -141
l37 -19 0 -76 0 -76 -28 45 c-39 61 -126 137 -170 148 -86 22 -142 24 -163 5
-37 -34 -13 -152 46 -221 54 -63 109 -85 202 -82 l77 4 15 -35 c10 -24 16 -77
17 -170 l3 -135 28 0 28 0 6 150 c3 83 9 159 13 170 6 18 16 20 95 20 80 0 92
3 136 30 65 40 116 130 117 206 0 69 -15 81 -91 73 -103 -12 -186 -64 -243
-153 l-28 -45 0 72 c0 64 2 72 23 83 12 6 37 25 55 43 116 109 95 303 -44 394
-58 39 -68 39 -119 6z m17 -221 l-4 -148 -33 38 c-39 45 -51 97 -35 155 10 38
53 102 68 102 4 0 6 -66 4 -147z m132 59 c19 -53 20 -90 5 -129 -11 -30 -47
-73 -61 -73 -4 0 -8 66 -8 147 l0 146 24 -23 c14 -12 32 -43 40 -68z m220
-339 c-10 -44 -57 -106 -94 -125 -37 -19 -115 -24 -124 -9 -9 14 51 89 93 115
36 23 89 43 119 45 8 1 10 -8 6 -26z m-545 2 c29 -14 131 -122 131 -137 0 -4
-20 -8 -45 -8 -46 0 -94 18 -129 49 -19 17 -56 83 -56 101 0 15 67 12 99 -5z"/>
<path d="M953 1360 c-22 -9 -23 -13 -23 -160 l0 -150 25 -10 c38 -15 54 -3 57
43 l3 42 64 6 c54 5 69 11 88 33 63 74 31 175 -64 197 -48 11 -121 10 -150 -1z
m155 -82 c7 -7 12 -21 12 -33 0 -32 -20 -45 -67 -45 l-43 0 0 38 c0 21 3 42 7
45 11 12 78 8 91 -5z"/>
<path d="M1304 1363 c-10 -7 -54 -109 -112 -260 -16 -40 -16 -44 0 -60 23 -22
65 -4 74 32 6 24 10 25 74 25 64 0 68 -1 74 -25 8 -33 39 -49 66 -35 11 6 20
17 20 24 0 8 -20 60 -44 117 -24 57 -50 122 -57 144 -13 35 -19 40 -49 43 -19
1 -40 -1 -46 -5z m57 -152 c9 -22 15 -42 11 -45 -8 -9 -72 -7 -72 1 0 16 33
93 38 88 3 -2 13 -22 23 -44z"/>
<path d="M1565 1348 c-3 -13 -4 -86 -3 -163 l3 -140 110 0 110 0 3 28 c4 33
-8 39 -85 41 l-58 1 -3 120 c-3 125 -6 135 -49 135 -15 0 -24 -7 -28 -22z"/>
<path d="M1941 1353 c-14 -28 -111 -281 -111 -292 0 -6 9 -15 20 -21 27 -14
56 2 64 35 6 24 10 25 75 25 67 0 69 0 74 -29 4 -18 14 -30 28 -34 25 -7 59 8
59 25 0 9 -41 108 -106 256 -21 49 -25 52 -58 52 -23 0 -38 -6 -45 -17z m68
-140 l21 -43 -39 0 -40 0 16 46 c8 25 16 44 18 42 1 -2 12 -22 24 -45z"/>
<path d="M2170 1356 c-6 -8 -10 -25 -8 -38 3 -20 9 -23 56 -26 l52 -3 0 -118
c0 -116 6 -141 36 -141 7 0 20 7 29 17 15 14 16 31 10 129 l-7 113 58 3 c53 3
59 5 62 26 7 46 -11 52 -148 52 -99 0 -130 -3 -140 -14z"/>
<path d="M2522 1358 c-8 -8 -12 -57 -12 -153 0 -96 4 -145 12 -153 8 -8 49
-12 120 -12 98 0 108 2 118 21 19 35 -3 48 -88 51 -75 3 -77 4 -77 28 0 24 3
25 59 25 45 0 61 4 70 18 21 33 -4 52 -73 55 -58 3 -62 5 -59 25 3 20 10 22
83 27 79 5 80 5 83 34 2 16 -2 32 -10 37 -21 14 -212 11 -226 -3z"/>
<path d="M1333 913 c-9 -3 -13 -33 -13 -99 0 -87 1 -94 20 -94 16 0 20 7 20
30 0 28 3 30 35 30 43 0 75 29 75 68 0 33 -8 45 -37 61 -22 11 -77 14 -100 4z
m85 -65 c-2 -17 -11 -24 -30 -26 -24 -3 -28 0 -28 22 0 22 4 26 31 26 26 0 30
-3 27 -22z"/>
<path d="M1544 822 c-24 -56 -37 -100 -31 -103 16 -11 45 2 50 22 8 28 93 28
102 -1 4 -13 15 -20 31 -20 24 0 24 1 10 33 -7 17 -28 62 -47 100 -48 97 -63
93 -115 -31z m74 -20 c-27 -5 -32 2 -18 29 l13 22 13 -24 c11 -22 11 -24 -8
-27z"/>
<path d="M1834 911 c-29 -13 -64 -59 -64 -85 0 -32 37 -85 66 -96 14 -6 48
-10 75 -10 l49 0 0 55 0 55 -35 0 c-28 0 -35 -4 -35 -19 0 -10 7 -21 15 -25 8
-3 15 -10 15 -16 0 -15 -53 -12 -78 6 -28 20 -30 69 -3 84 25 13 74 13 87 0 8
-8 15 -6 24 5 11 13 11 19 -2 31 -18 19 -85 27 -114 15z"/>
<path d="M2057 914 c-9 -9 -9 -120 -1 -163 l7 -31 69 0 c61 0 69 2 66 18 -2
13 -15 18 -51 20 -33 2 -47 7 -47 18 0 9 11 14 35 14 30 0 35 3 35 24 0 21 -5
25 -37 28 -54 4 -47 22 10 26 43 3 48 5 45 25 -3 19 -10 22 -63 25 -34 2 -64
0 -68 -4z"/>
<path d="M2285 904 c-10 -10 -15 -29 -13 -48 3 -26 11 -35 52 -54 36 -18 46
-26 37 -35 -8 -8 -22 -8 -51 0 -48 12 -62 0 -32 -29 26 -26 84 -28 112 -3 29
27 22 65 -16 90 -73 47 -73 46 -26 41 33 -3 45 -1 49 11 14 37 -79 59 -112 27z"/>
</g>
</svg>
