<?xml version="1.0" standalone="no"?>
<!DOCTYPE svg PUBLIC "-//W3C//DTD SVG 20010904//EN"
 "http://www.w3.org/TR/2001/REC-SVG-20010904/DTD/svg10.dtd">
<svg version="1.0" xmlns="http://www.w3.org/2000/svg"
 width="1024.000000pt" height="1024.000000pt" viewBox="0 0 1024.000000 1024.000000"
 preserveAspectRatio="xMidYMid meet">

<g transform="translate(0.000000,1024.000000) scale(0.100000,-0.100000)"
fill="#6f553a" stroke="none">
<path d="M4921 9415 c-258 -56 -484 -193 -651 -393 -80 -95 -138 -193 -169
-285 -17 -49 -20 -52 -62 -60 -75 -13 -168 -3 -236 27 -135 58 -253 58 -430 2
l-108 -35 -256 -1 -255 -1 -40 32 c-92 73 -196 109 -320 109 -172 0 -302 -71
-393 -214 -38 -61 -41 -63 -90 -69 -169 -20 -360 -137 -490 -300 -142 -179
-195 -332 -207 -598 -19 -437 71 -703 350 -1029 61 -71 114 -165 142 -250 21
-63 24 -283 24 -1888 1 -791 2 -903 15 -898 9 3 15 -1 15 -10 0 -8 -4 -12 -10
-9 -11 7 -11 6 -15 -43 -2 -25 1 -32 11 -28 8 3 14 1 14 -4 0 -6 -8 -10 -17
-10 -15 0 -16 -2 -3 -10 8 -5 10 -10 5 -10 -6 0 -11 -9 -11 -19 0 -11 4 -17 8
-15 4 3 8 0 8 -5 0 -6 3 -10 8 -10 18 3 32 -2 32 -12 0 -7 -10 -9 -25 -5 -15
4 -25 2 -25 -4 0 -6 5 -8 10 -5 6 3 10 -1 10 -10 0 -11 -5 -15 -15 -11 -17 6
-19 -2 -6 -23 12 -18 45 -6 37 14 -3 9 0 15 8 15 8 0 17 -7 20 -16 4 -10 13
-14 28 -10 13 3 18 3 12 0 -7 -3 -9 -14 -6 -26 3 -15 1 -19 -7 -14 -6 4 -9 11
-6 16 3 4 -2 11 -11 14 -29 11 -35 6 -19 -17 8 -13 12 -27 8 -30 -3 -4 5 -7
18 -8 15 0 19 -3 9 -6 -26 -11 -39 -29 -29 -44 12 -19 11 -29 -1 -29 -5 0 -10
9 -10 21 0 15 -5 19 -15 15 -13 -5 -13 -3 0 17 19 29 9 67 -17 67 -17 0 -18
-2 -8 -16 11 -12 11 -15 0 -12 -7 2 -15 -3 -17 -10 -3 -8 1 -10 13 -5 12 4 15
2 12 -8 -3 -8 -10 -13 -16 -12 -5 1 -9 -5 -7 -15 2 -9 4 -24 4 -32 1 -12 3
-12 10 -2 6 10 10 10 21 -3 11 -13 9 -15 -9 -15 -11 0 -21 -4 -21 -10 0 -11
60 -2 75 12 6 5 10 21 10 36 0 24 4 27 37 27 39 1 42 -2 32 -29 -8 -20 -24
-21 -24 -2 0 8 -7 17 -16 20 -24 9 -28 7 -15 -7 6 -8 8 -17 4 -20 -3 -4 2 -9
11 -13 9 -3 13 -10 10 -16 -3 -5 -11 -5 -19 2 -10 8 -15 6 -20 -10 -8 -24 2
-41 13 -23 5 8 13 9 22 3 12 -7 10 -11 -9 -18 -20 -7 -21 -9 -7 -21 13 -11 16
-11 16 2 0 8 7 18 16 21 26 10 28 7 9 -14 -16 -18 -16 -20 -2 -20 10 0 17 -6
17 -13 0 -16 -30 -19 -47 -4 -9 6 -13 6 -13 -1 0 -6 -6 -9 -14 -6 -7 3 -11 14
-9 28 6 28 -41 66 -51 41 -4 -10 1 -15 14 -15 13 0 20 -7 20 -19 0 -33 11 -51
31 -51 11 0 19 -7 19 -16 0 -8 -4 -13 -8 -10 -5 3 -21 2 -37 -2 l-27 -8 27
-32 c28 -33 50 -41 58 -19 3 7 6 5 6 -5 1 -13 -7 -18 -26 -18 -26 0 -26 0 -7
-19 10 -10 24 -16 30 -14 6 2 16 -3 23 -11 11 -13 8 -15 -23 -11 -20 3 -35 2
-33 -3 2 -8 -6 -12 -24 -12 -8 0 -8 5 1 15 10 12 9 15 -5 15 -15 0 -17 -6 -12
-40 4 -31 2 -40 -10 -40 -8 0 -11 -4 -8 -10 3 -5 13 -10 21 -10 8 0 12 5 9 10
-3 6 2 10 12 10 17 1 17 1 0 11 -24 14 -12 32 13 19 13 -7 20 -6 22 1 2 7 10
4 18 -7 8 -10 10 -15 3 -11 -7 5 -22 -2 -34 -14 -16 -16 -18 -21 -6 -16 9 4
24 10 32 13 11 5 13 2 9 -10 -4 -9 -18 -16 -34 -16 -29 0 -49 -28 -35 -50 3
-5 2 -10 -4 -10 -6 0 -8 -7 -5 -15 4 -8 10 -15 15 -15 4 0 5 7 2 17 -4 11 -3
14 5 9 7 -4 12 -15 12 -25 0 -21 -41 -36 -51 -19 -4 6 -12 7 -20 3 -9 -6 -11
-3 -6 8 3 10 2 17 -3 17 -6 0 -10 -11 -10 -25 0 -14 0 -28 -1 -32 0 -4 5 -9
12 -12 8 -2 10 2 6 12 -3 9 -2 19 2 21 11 7 43 -29 34 -37 -9 -9 7 -8 32 3 19
8 19 9 -2 9 -13 1 -23 6 -23 12 0 6 9 9 19 6 25 -6 35 30 17 58 -16 24 -19 35
-8 34 4 -1 6 -5 4 -10 -1 -5 5 -12 13 -15 8 -3 12 -10 9 -15 -3 -5 0 -9 7 -9
8 0 8 -4 -1 -15 -18 -22 -6 -44 22 -39 21 4 21 4 3 -5 -11 -4 -23 -7 -27 -4
-5 2 -8 -1 -8 -6 0 -6 -6 -11 -14 -11 -27 0 -5 -36 30 -49 26 -9 34 -18 34
-36 0 -13 -5 -27 -12 -31 -8 -5 -9 -2 -5 9 3 9 2 19 -3 22 -12 7 -71 -45 -64
-56 7 -12 -35 -48 -56 -49 -9 0 -6 6 9 16 16 12 20 19 11 24 -16 10 -16 56 0
75 8 10 21 13 39 8 23 -6 25 -5 12 10 -14 18 -67 24 -56 7 3 -5 1 -10 -5 -10
-7 0 -10 6 -7 14 3 7 0 19 -6 25 -8 8 -8 11 1 11 7 0 12 -4 12 -8 0 -5 7 -9
15 -9 24 0 17 14 -11 21 -32 8 -41 1 -24 -19 10 -12 10 -15 0 -15 -10 0 -9 -4
2 -17 14 -17 14 -58 -1 -49 -4 3 -8 -4 -8 -15 -1 -13 2 -17 10 -12 9 5 9 3 1
-8 -20 -26 0 -128 21 -107 3 3 0 12 -8 19 -12 12 -11 15 7 24 12 6 31 9 44 7
l23 -5 -23 -16 c-30 -21 -36 -61 -8 -61 11 0 20 -7 20 -15 0 -12 -4 -13 -19
-5 -25 13 -41 13 -41 0 0 -5 11 -10 24 -10 20 0 36 -16 36 -36 0 -2 -16 4 -35
13 -19 9 -35 20 -35 25 0 4 -4 8 -10 8 -5 0 -7 -7 -4 -15 4 -8 13 -15 22 -15
20 0 5 -16 -23 -24 -11 -3 -6 -4 12 -2 28 2 30 0 23 -20 -5 -12 -6 -25 -2 -29
3 -3 0 -10 -8 -15 -11 -7 -12 -10 -2 -10 8 0 10 -5 5 -12 -4 -7 -8 -28 -9 -46
-2 -27 1 -32 13 -28 13 5 14 4 3 -9 -7 -9 -10 -18 -6 -22 3 -3 6 -1 6 5 0 16
12 15 35 -1 14 -11 15 -16 5 -22 -9 -5 -11 -4 -6 3 4 7 1 12 -9 12 -12 0 -14
-4 -6 -19 9 -16 8 -18 -9 -14 -27 7 -25 -11 3 -23 12 -6 16 -9 9 -7 -8 2 -12
-3 -9 -9 2 -7 10 -12 16 -10 6 1 11 -2 11 -8 0 -17 -28 -11 -40 8 -11 16 -11
16 -6 0 3 -11 -3 -23 -17 -33 -12 -8 -18 -16 -14 -16 4 -1 11 -2 16 -3 17 -2
24 -16 8 -16 -9 0 -19 -4 -22 -10 -3 -6 1 -7 10 -4 11 5 14 2 9 -10 -3 -9 -1
-16 5 -16 6 0 11 9 11 20 0 11 7 23 15 26 8 4 12 10 9 15 -3 5 -10 7 -15 4 -5
-4 -9 -1 -9 5 0 6 8 10 18 8 9 -2 17 -11 17 -21 0 -19 24 -39 37 -31 4 3 8 0
8 -6 0 -15 -32 -8 -46 9 -9 11 -12 7 -17 -18 -5 -21 -11 -30 -18 -25 -8 5 -9
3 -5 -5 5 -7 14 -10 22 -7 8 3 11 0 8 -9 -3 -8 -1 -22 5 -32 7 -13 10 -14 11
-4 0 8 3 11 7 8 8 -8 33 11 33 25 0 6 -7 5 -15 -2 -10 -9 -15 -9 -15 -1 0 6 5
11 10 11 6 0 10 5 10 11 0 5 -4 7 -10 4 -5 -3 -10 -1 -10 4 0 6 4 11 10 11 14
0 32 -39 26 -55 -8 -22 11 -28 23 -8 9 15 11 11 12 -22 2 -22 3 -48 3 -57 0
-9 3 -15 7 -12 4 2 13 -12 19 -31 18 -53 112 -150 178 -182 l57 -28 253 0
c138 0 252 -3 252 -6 0 -3 -39 -9 -87 -13 -65 -5 -90 -11 -96 -22 -8 -14 -11
-14 -18 -3 -8 12 -11 12 -20 -1 -8 -11 -12 -12 -16 -2 -2 6 -9 12 -14 12 -6 0
-7 -4 -4 -10 4 -6 -4 -9 -17 -7 -17 1 -24 -4 -26 -22 -3 -16 0 -21 9 -16 8 5
10 4 5 -3 -9 -15 -36 -16 -36 -1 0 5 -5 7 -12 3 -7 -4 -8 -3 -4 5 4 6 12 9 17
6 5 -4 9 1 9 9 0 8 -4 18 -10 21 -5 3 -10 1 -10 -4 0 -6 -7 -11 -15 -11 -8 0
-15 5 -15 11 0 5 6 7 13 3 6 -4 9 -3 4 1 -10 12 -57 13 -57 2 0 -5 -7 -6 -16
-3 -15 6 -15 4 -1 -17 10 -15 12 -29 6 -38 -7 -11 -9 -11 -9 3 0 9 -5 20 -12
24 -7 5 -8 3 -3 -6 10 -16 -33 -4 -56 16 -13 12 -18 11 -33 -4 -16 -16 -17
-16 -10 1 5 13 2 16 -10 11 -12 -5 -15 -2 -10 10 6 17 24 22 24 8 0 -5 20 -8
44 -8 24 1 42 3 39 6 -4 4 -14 6 -83 13 -14 1 -28 6 -32 12 -10 14 -21 -1 -12
-17 14 -22 15 -50 2 -45 -7 2 -12 10 -10 16 1 7 -3 11 -10 10 -32 -4 -69 2
-64 10 3 5 -1 12 -10 15 -10 4 -14 13 -10 28 3 13 3 17 0 11 -6 -14 -35 -18
-33 -6 3 19 -2 34 -9 29 -4 -2 -13 4 -20 14 -14 23 1 36 18 15 7 -8 16 -12 21
-10 11 8 -1 36 -15 34 -6 -1 -16 -1 -22 0 -15 1 -72 84 -67 97 2 7 -6 10 -24
6 -21 -4 -23 -7 -10 -11 16 -6 16 -7 -1 -17 -15 -10 -18 -8 -19 9 -1 11 -9 25
-18 29 -8 5 -13 14 -9 19 4 6 11 6 19 -1 8 -7 19 -9 25 -5 5 3 10 1 10 -5 0
-7 6 -10 14 -7 7 3 19 0 25 -6 8 -8 11 -8 11 1 0 7 -8 16 -17 19 -10 4 -29 15
-42 25 l-24 18 24 0 23 0 -22 16 c-12 8 -20 19 -17 24 3 4 -5 10 -16 13 -15 4
-20 11 -17 25 6 22 -27 49 -38 31 -4 -6 -1 -15 6 -19 9 -6 9 -9 -1 -12 -12 -4
-12 -8 0 -22 11 -14 12 -16 1 -14 -19 4 -13 -89 10 -166 53 -169 209 -301 383
-325 106 -15 410 1 937 50 140 12 630 12 755 -1 233 -24 463 -77 690 -157 116
-41 166 -65 185 -88 22 -26 120 -89 175 -112 148 -63 384 -55 524 17 31 16 81
51 111 78 43 38 78 58 153 86 212 80 531 155 742 176 159 16 599 13 810 -5
477 -42 854 -55 944 -34 168 38 307 183 357 373 11 41 14 241 13 1044 0 546
-4 990 -8 988 -4 -3 -25 -30 -46 -61 l-39 -56 11 -62 c10 -62 8 -75 -21 -152
-13 -34 -15 -36 -16 -14 0 14 3 29 7 33 10 10 13 86 3 86 -18 0 -21 -72 -25
-508 -4 -438 -3 -451 15 -454 15 -2 17 -7 10 -18 -9 -13 -11 -13 -20 0 -6 10
-10 -109 -10 -356 0 -341 -2 -377 -20 -436 -10 -35 -31 -78 -44 -97 -14 -19
-23 -38 -20 -43 3 -4 -3 -11 -13 -15 -10 -3 -28 -15 -40 -26 -18 -16 -20 -23
-11 -42 7 -15 16 -22 27 -18 13 4 13 3 2 -5 -17 -12 -43 -4 -34 11 4 7 0 8
-11 4 -10 -4 -20 -7 -22 -7 -2 0 -4 -7 -4 -16 0 -11 6 -14 20 -9 11 4 20 2 20
-4 0 -6 -6 -11 -12 -12 -7 0 -28 -2 -47 -5 -19 -2 -47 2 -63 11 -27 13 -29 13
-24 -1 4 -10 2 -13 -6 -8 -6 4 -28 7 -50 6 -94 -2 -91 -1 -78 -17 15 -18 37
-19 43 -2 4 9 8 9 15 -2 7 -9 12 -10 16 -2 4 6 12 8 18 5 6 -4 14 0 19 7 7 11
9 10 9 -3 0 -21 4 -22 32 -7 15 8 23 8 32 -2 8 -9 7 -11 -6 -6 -10 3 -20 2
-23 -3 -4 -6 -24 -7 -47 -3 -27 4 -39 2 -35 -4 6 -10 -32 -7 -63 4 -8 4 -19 5
-25 3 -5 -1 -34 -3 -63 -4 -51 -2 -53 -1 -47 22 5 19 3 23 -9 19 -9 -4 -18 -2
-22 4 -4 7 -10 7 -18 0 -9 -7 -16 -7 -23 0 -6 6 -29 10 -51 11 -23 0 -47 7
-53 14 -14 17 -33 15 211 17 178 2 200 4 251 25 80 32 142 90 181 170 l33 67
5 890 5 890 26 55 c26 56 68 106 126 151 l33 24 2 1285 c3 1282 3 1285 24
1347 29 85 60 134 161 260 182 229 247 356 278 546 18 112 21 571 4 680 -46
294 -249 551 -507 640 -79 27 -93 29 -201 25 -97 -4 -127 -9 -181 -31 l-66
-27 -51 49 c-28 27 -85 66 -127 87 -76 37 -80 38 -224 44 l-147 6 -83 42
c-204 105 -437 142 -571 93 -58 -21 -69 -22 -118 -12 -103 24 -180 -13 -250
-118 -1 -2 -49 -3 -105 -3 -57 1 -124 1 -150 2 l-47 0 -21 58 c-84 225 -281
448 -495 559 -102 53 -261 108 -352 122 -97 15 -314 13 -392 -4z m378 -210
c201 -39 336 -110 481 -255 109 -108 167 -205 200 -336 25 -96 27 -250 4 -338
-22 -86 -79 -190 -142 -258 -60 -64 -169 -141 -240 -169 l-47 -18 48 -1 47 0
0 -285 c0 -157 -4 -285 -8 -285 -4 0 -33 9 -65 20 -31 11 -65 20 -76 20 -11 0
-22 4 -25 9 -3 5 -9 132 -12 282 -4 151 -7 275 -9 277 -1 1 -21 -6 -45 -17
l-42 -19 31 -7 31 -7 0 -247 c0 -136 -2 -250 -5 -252 -5 -6 -133 6 -140 12 -2
3 -6 122 -8 266 -3 143 -9 269 -15 278 -9 17 -11 16 -26 -7 -15 -23 -17 -58
-16 -269 1 -134 1 -250 0 -256 0 -10 -25 -13 -90 -13 l-90 0 -1 33 c0 30 -5
309 -8 465 -1 65 -3 72 -21 72 -11 0 -21 -1 -22 -2 -1 -2 -4 -131 -7 -288 l-6
-284 -95 -12 c-52 -7 -134 -24 -183 -38 -48 -14 -92 -26 -97 -26 -6 0 -10 105
-10 285 l0 285 25 6 c14 3 25 9 25 13 0 3 -23 19 -52 35 -73 41 -196 163 -241
238 -21 34 -49 100 -64 146 -23 75 -25 94 -21 195 11 229 115 420 309 566 224
169 476 233 728 186z m1886 -575 c209 -63 295 -96 318 -122 30 -35 16 -178
-18 -178 -7 0 -87 20 -176 45 -90 25 -171 45 -181 45 -11 0 -17 3 -15 8 3 4
-9 7 -26 8 -51 1 -167 28 -167 38 0 5 -13 -3 -30 -19 -34 -32 -36 -28 -16 30
15 42 11 95 -7 95 -6 0 -19 -8 -29 -17 -18 -16 -19 -16 -8 12 16 41 58 95 84
106 33 14 88 4 271 -51z m-466 -13 c64 -32 65 -50 2 -29 -47 15 -52 15 -70 -2
-22 -20 -41 -14 -41 13 0 45 42 52 109 18z m-4305 -34 c21 -21 26 -35 24 -62
-3 -35 -5 -36 -58 -47 -30 -6 -73 -19 -95 -29 -39 -19 -108 -81 -135 -122 -11
-17 -22 -21 -42 -16 l-26 5 14 41 c35 98 123 199 207 237 57 26 79 25 111 -7z
m1273 7 c26 -6 83 -28 126 -49 l78 -38 -71 -11 c-63 -9 -76 -8 -116 9 -25 11
-59 19 -77 17 l-32 -4 36 -17 c20 -9 39 -23 42 -32 5 -12 -3 -15 -42 -15 -26
0 -68 7 -93 16 -26 8 -61 14 -80 12 l-33 -3 41 -22 c22 -12 46 -28 52 -36 10
-12 5 -15 -34 -21 -26 -3 -70 -6 -98 -6 l-51 0 25 -20 25 -19 -32 -12 c-83
-29 -4 -46 95 -20 39 10 72 16 72 12 0 -4 -19 -24 -41 -45 -26 -24 -38 -41
-32 -47 17 -17 63 9 132 75 36 35 77 67 91 71 l24 8 -19 -29 c-10 -16 -30 -46
-43 -67 -55 -83 27 -44 99 48 36 46 55 62 66 58 10 -4 14 -2 10 4 -4 5 5 15
18 21 24 11 24 10 -10 -50 -46 -85 -89 -131 -149 -165 -45 -25 -61 -28 -141
-28 -81 0 -95 3 -144 30 -52 29 -171 147 -171 169 0 19 138 135 194 163 93 48
190 63 283 43z m-996 -57 c4 -5 21 -31 37 -60 24 -40 28 -53 17 -57 -9 -3 -31
14 -56 44 -23 28 -51 50 -61 50 -23 0 -36 29 -18 40 13 8 68 -4 81 -17z m3773
-69 c19 -18 21 -55 4 -72 -17 -17 -58 -15 -80 5 -22 20 -23 32 -2 61 18 26 56
29 78 6z m-3479 -59 c88 -66 382 -658 388 -781 1 -18 5 -30 8 -28 9 5 53 -183
53 -228 1 -21 4 -38 9 -38 4 0 7 -14 7 -31 0 -25 -3 -30 -16 -25 -14 5 -15 4
-4 -9 7 -8 10 -26 8 -40 -3 -13 0 -27 6 -30 6 -2 0 -2 -14 1 -32 8 -51 24 -44
35 3 5 1 9 -3 9 -14 0 -35 68 -28 89 6 21 -10 38 -20 21 -4 -6 -20 9 -36 35
-32 51 -36 63 -14 45 10 -9 15 -9 15 -1 0 10 -13 15 -31 13 -4 -1 -31 38 -60
86 -29 48 -89 139 -131 202 -43 63 -76 120 -73 128 2 7 -5 23 -16 35 l-21 22
11 -22 c21 -42 11 -38 -15 6 -20 32 -23 45 -14 51 9 6 10 9 0 15 -7 4 -15 3
-19 -3 -3 -6 -14 0 -24 14 -10 14 -15 24 -10 23 26 -4 24 4 -7 23 -27 17 -31
23 -17 26 9 2 15 7 12 12 -3 5 -12 7 -19 4 -8 -3 -17 0 -22 7 -5 9 -2 10 9 6
9 -3 19 -2 22 3 5 9 -15 15 -37 11 -5 0 -8 6 -8 15 0 8 4 12 10 9 6 -3 7 1 4
9 -7 19 -21 21 -26 4 -3 -7 -13 2 -23 20 -11 18 -23 32 -26 32 -11 0 -39 61
-33 71 3 5 0 8 -8 7 -8 -2 -14 8 -16 25 -3 24 5 37 45 73 94 87 160 101 228
49z m5470 -31 c110 -28 189 -87 258 -192 77 -117 109 -256 71 -310 -12 -18
-15 -46 -12 -145 2 -91 -1 -131 -13 -158 -10 -26 -13 -56 -9 -103 3 -42 2 -66
-5 -66 -5 0 -3 -5 5 -10 8 -5 11 -10 5 -10 -5 0 -11 -15 -12 -33 -2 -23 0 -28
7 -17 7 11 10 1 10 -35 0 -28 -4 -45 -8 -38 -5 8 -8 -3 -8 -25 -1 -60 -9 -130
-15 -126 -3 1 -15 -17 -27 -42 -22 -45 -28 -63 -15 -51 3 4 12 -1 19 -10 11
-16 12 -14 7 8 -5 28 14 43 36 30 8 -5 2 -20 -19 -49 -31 -43 -44 -53 -34 -27
4 8 1 15 -6 15 -8 0 -10 -8 -7 -21 5 -17 -10 -38 -68 -95 -75 -75 -128 -162
-141 -230 l-6 -34 -31 42 c-55 76 -121 132 -215 183 -119 64 -151 90 -187 156
l-30 54 -3 485 c-3 501 1 580 37 663 39 91 133 168 235 193 70 17 112 17 181
-2z m-4276 -124 c42 -135 143 -280 256 -366 33 -25 63 -53 67 -62 4 -10 7
-148 7 -308 l1 -292 -49 -31 c-106 -68 -260 -98 -373 -71 -146 35 -304 160
-366 291 -84 175 -82 367 3 545 38 79 147 204 224 257 49 33 190 99 205 94 5
-2 16 -27 25 -57z m1998 19 c126 -47 236 -137 320 -262 178 -266 103 -648
-161 -819 -94 -60 -176 -81 -299 -76 -115 6 -181 27 -259 83 l-47 34 -1 273
c0 150 2 287 6 303 4 23 21 40 76 75 38 25 93 70 122 101 54 58 140 213 152
274 7 41 14 42 91 14z m1592 -30 c15 -23 15 -24 -4 -8 -11 9 -26 15 -33 13 -7
-1 -8 0 -2 3 5 2 7 9 4 15 -4 6 -1 9 6 6 7 -2 20 -15 29 -29z m-5749 1 c0 -12
-8 -21 -22 -24 -201 -39 -266 -70 -381 -183 -66 -65 -126 -175 -154 -283 -26
-97 -23 -314 6 -443 29 -129 82 -307 121 -409 17 -44 29 -82 27 -84 -7 -7 -74
110 -108 189 -50 112 -78 202 -99 316 -44 242 -27 437 53 596 102 205 304 341
510 344 40 1 47 -2 47 -19z m130 -7 c0 -5 15 -9 34 -10 42 -2 162 -52 220 -92
67 -47 157 -143 199 -213 103 -173 127 -422 71 -733 -32 -172 -113 -416 -175
-523 -32 -57 -47 -65 -28 -16 18 48 56 182 98 350 56 224 74 365 69 549 -4
138 -7 157 -35 232 -57 150 -135 242 -286 337 -48 30 -119 67 -157 82 -75 29
-88 44 -40 44 17 0 30 -3 30 -7z m4685 -78 c32 -31 32 -69 -1 -101 -19 -20
-31 -24 -52 -19 -41 10 -62 34 -62 72 0 67 68 96 115 48z m-4886 -21 c-70 -46
-175 -156 -217 -227 -78 -130 -107 -273 -99 -482 9 -216 50 -457 118 -684 22
-73 38 -135 36 -137 -7 -7 -77 105 -96 154 -67 171 -107 384 -117 633 -11 251
21 410 112 556 73 117 207 221 288 222 26 1 24 -2 -25 -35z m5839 8 c29 -19
30 -67 1 -83 -19 -10 -20 -9 -14 11 5 15 2 26 -6 31 -12 8 -11 11 1 19 13 9
13 10 0 10 -8 0 -21 9 -27 20 -11 17 -10 18 5 13 9 -4 27 -13 40 -21z m-5610
-12 c128 -66 234 -209 281 -380 57 -203 50 -508 -19 -895 -33 -181 -51 -239
-78 -243 -26 -4 -27 4 -7 90 8 35 26 143 39 239 91 638 51 861 -206 1146 -25
28 -48 49 -51 47 -2 -2 -10 2 -17 11 -18 22 -7 19 58 -15z m-217 -152 c-58
-234 -66 -484 -26 -819 25 -211 54 -380 82 -482 9 -32 14 -59 11 -62 -2 -2
-13 -2 -25 1 -18 5 -27 30 -61 172 -127 517 -139 876 -38 1143 26 70 66 143
73 135 3 -2 -5 -42 -16 -88z m217 36 c165 -250 200 -658 108 -1286 -15 -105
-20 -118 -42 -118 -19 0 -18 50 3 259 12 112 17 256 17 446 1 328 -9 387 -94
598 -27 69 -50 133 -50 142 0 28 23 11 58 -41z m-274 -8 c-35 -77 -71 -226
-85 -353 -13 -120 -8 -294 16 -553 14 -153 59 -453 71 -472 8 -12 -26 -22 -37
-11 -23 23 -77 273 -103 473 -46 354 -24 639 64 825 31 66 83 145 96 145 2 0
-8 -24 -22 -54z m5461 39 c82 -22 152 -64 217 -132 95 -100 97 -91 -50 -171
-136 -74 -218 -116 -295 -152 -26 -12 -52 -31 -58 -41 -5 -11 -14 -17 -19 -14
-5 3 -12 -1 -17 -8 -9 -14 -109 -67 -128 -67 -6 0 -29 -16 -50 -35 -22 -19
-43 -31 -48 -26 -15 15 -57 146 -57 178 0 17 -5 35 -11 39 -19 11 0 114 36
191 50 108 149 198 263 239 50 18 146 17 217 -1z m-5286 -96 c6 -52 15 -179
21 -284 6 -104 17 -296 25 -425 7 -129 17 -311 21 -405 3 -93 7 -181 8 -195 1
-19 -4 -25 -19 -25 -15 0 -21 9 -26 40 -10 61 -27 289 -44 600 -9 154 -20 343
-25 420 -15 222 -13 335 7 357 9 10 18 17 19 15 2 -2 8 -46 13 -98z m5603
-194 c0 -8 -105 -68 -542 -307 -91 -50 -169 -93 -175 -96 -5 -3 -4 2 3 11 19
22 102 76 192 123 41 21 81 45 88 52 8 7 18 10 23 7 5 -4 9 -2 9 3 0 11 57 44
205 123 50 26 110 58 135 72 46 25 61 28 62 12z m54 -287 c-3 -13 -6 -43 -7
-68 0 -32 -3 -39 -8 -25 -7 18 -8 17 -14 -6 -3 -13 -21 -40 -39 -58 -18 -19
-33 -39 -33 -45 0 -6 -7 -11 -16 -10 -8 1 -26 -14 -39 -32 -14 -18 -29 -34
-33 -34 -5 0 -6 4 -3 9 4 5 -3 7 -14 4 -11 -3 -20 -9 -20 -14 0 -10 -116 -12
-172 -3 -21 4 -38 9 -38 13 0 3 65 48 143 99 78 51 174 115 212 142 39 27 74
50 79 50 4 0 6 -10 2 -22z m-4395 -141 c-10 -9 -11 -8 -5 6 3 10 9 15 12 12 3
-3 0 -11 -7 -18z m-349 -44 c26 -23 24 -78 -4 -97 -12 -9 -32 -16 -44 -16 -26
0 -64 44 -64 73 0 50 72 76 112 40z m4668 -3 c0 -5 -5 -10 -11 -10 -5 0 -7 5
-4 10 3 6 8 10 11 10 2 0 4 -4 4 -10z m-2215 -64 c39 -9 103 -28 143 -43 l72
-28 0 -103 c0 -102 0 -103 -22 -97 -13 4 -31 9 -42 12 -15 4 -17 12 -13 39 5
27 1 37 -16 49 -32 23 -37 19 -37 -29 0 -47 4 -45 -62 -31 -26 5 -28 9 -30 58
l-2 52 -3 -54 c-4 -52 -5 -53 -31 -47 -60 14 -362 19 -459 6 -107 -13 -233
-40 -302 -64 -24 -9 -48 -16 -53 -16 -5 0 -7 50 -6 112 l3 113 60 22 c74 27
181 52 271 63 105 13 446 4 529 -14z m2160 -6 c-3 -5 -14 -10 -23 -10 -15 0
-15 2 -2 10 20 13 33 13 25 0z m-845 -40 c28 -28 26 -66 -5 -86 -41 -27 -95 4
-95 55 0 15 5 32 12 39 19 19 66 14 88 -8z m-3300 6 c0 -2 -9 -6 -20 -9 -11
-3 -18 -1 -14 4 5 9 34 13 34 5z m-5 -64 c-3 -3 -11 0 -18 7 -9 10 -8 11 6 5
10 -3 15 -9 12 -12z m5321 -39 c-15 -28 -15 -28 -13 -3 0 14 6 28 11 32 17 12
18 1 2 -29z m-5072 17 c55 -20 41 -100 -17 -100 -55 0 -74 41 -41 88 17 25 22
26 58 12z m3585 -73 c80 -41 131 -143 115 -228 -21 -110 -103 -179 -211 -179
-63 1 -119 27 -165 78 -41 46 -53 87 -46 167 6 66 36 114 97 155 58 39 142 41
210 7z m485 -56 c25 -28 6 -71 -32 -71 -49 0 -69 42 -36 74 21 21 47 20 68 -3z
m-4708 -23 c59 -21 137 -85 160 -131 18 -33 24 -174 10 -240 l-7 -39 -30 46
c-31 49 -36 66 -19 66 7 0 7 6 0 19 -5 11 -10 40 -10 65 0 57 -8 76 -30 76
-21 0 -30 -19 -30 -63 l0 -32 -19 29 c-11 16 -27 33 -35 38 -9 5 -16 18 -16
29 0 34 -28 89 -45 89 -13 0 -15 -6 -10 -31 l7 -31 -31 16 c-75 39 -82 5 -9
-55 28 -24 67 -68 87 -97 59 -88 110 -174 120 -203 l9 -27 -36 10 c-195 52
-324 207 -347 415 l-7 62 34 5 c105 18 177 13 254 -16z m1060 -124 c72 -53 90
-122 52 -193 -30 -56 -76 -80 -165 -89 l-68 -7 -3 -57 -3 -58 -54 0 -55 0 0
216 0 216 134 -4 c117 -3 138 -6 162 -24z m513 -164 c43 -102 83 -195 89 -207
7 -12 12 -24 12 -27 0 -3 -26 -6 -58 -6 -55 0 -58 1 -69 30 -11 30 -12 30 -88
30 -76 0 -76 0 -86 -30 -10 -28 -14 -30 -65 -30 -30 0 -54 2 -54 4 0 2 31 82
69 177 38 96 75 191 82 212 13 36 15 38 52 35 l39 -3 77 -185z m391 25 l0
-165 30 -1 c17 -1 35 -3 40 -4 6 -1 33 -3 60 -4 l50 -1 0 -45 0 -45 -145 0
-145 0 0 215 0 215 55 0 55 0 0 -165z m579 103 c32 -85 108 -262 138 -320 l23
-48 -65 0 -65 0 0 30 0 30 -84 0 -84 0 -11 -30 c-9 -28 -13 -30 -62 -30 -44 0
-51 2 -46 18 11 33 152 387 160 400 5 6 23 12 40 12 30 0 34 -4 56 -62z m605
31 c13 -65 11 -68 -50 -71 l-57 -3 -2 -55 c-2 -30 -3 -103 -4 -162 l-1 -108
-50 0 -50 0 0 165 0 165 -65 0 -65 0 0 43 c0 24 3 47 7 50 3 4 79 7 168 7
l163 0 6 -31z m507 27 c2 -3 3 -25 1 -50 l-4 -46 -89 0 -89 0 0 -40 0 -40 81
0 80 0 -3 -42 -3 -43 -77 -3 -78 -3 0 -34 0 -35 95 0 95 0 0 -45 0 -45 -155 0
-155 0 0 215 0 215 148 0 c82 0 151 -2 153 -4z m-3121 -135 c0 -5 -4 -11 -8
-13 -5 -1 -12 -16 -15 -33 l-6 -30 15 30 15 30 -6 -40 c-4 -22 -11 -41 -16
-43 -5 -2 -9 -10 -9 -17 0 -21 -14 -25 -41 -12 -22 12 -27 9 -62 -31 -21 -24
-49 -66 -62 -92 -28 -56 -65 -182 -65 -223 0 -43 -17 -23 -26 30 -13 78 -4
153 27 234 36 94 94 163 164 195 51 24 95 31 95 15z m4375 -16 c164 -34 278
-123 352 -272 l38 -77 0 -131 c0 -86 -4 -137 -13 -152 -12 -21 -14 -21 -50 -7
-65 26 -82 37 -82 53 0 14 2 14 9 2 16 -25 24 31 19 127 -5 95 -23 144 -84
218 -51 63 -184 140 -184 106 0 -6 5 -12 11 -14 10 -3 -73 -230 -93 -253 -9
-9 -5 62 11 210 6 55 8 60 29 57 32 -5 27 15 -5 21 -68 13 -233 -26 -233 -55
0 -5 13 -1 30 8 16 10 31 16 34 13 7 -8 75 -214 78 -239 5 -45 -31 -23 -124
72 -86 89 -88 91 -71 111 17 19 17 20 -3 9 -44 -23 -47 -38 -13 -67 18 -15 67
-59 110 -98 72 -66 76 -72 66 -95 -10 -22 -15 -24 -62 -18 -54 6 -352 80 -361
89 -3 3 12 43 34 90 70 150 203 259 356 292 80 18 117 18 201 0z m-4394 -138
c-10 -9 -11 -8 -5 6 3 10 9 15 12 12 3 -3 0 -11 -7 -18z m-32 -1 c9 -10 6 -17
-13 -30 -32 -20 -50 -21 -42 0 3 9 6 22 6 30 0 18 34 18 49 0z m4336 3 c9 -13
-5 -269 -14 -269 -3 0 -22 59 -42 130 -32 117 -34 132 -20 140 22 13 68 12 76
-1z m178 -33 c9 -7 17 -16 17 -19 0 -10 -153 -218 -157 -213 -4 3 80 215 94
239 6 11 26 8 46 -7z m-5788 -21 c305 -5 379 -16 492 -70 137 -65 246 -166
317 -295 47 -87 65 -139 82 -240 36 -220 -3 -412 -120 -589 -126 -188 -323
-293 -584 -308 l-103 -6 3 -437 3 -436 36 -72 c19 -40 34 -72 31 -72 -2 0 -30
20 -63 45 -138 107 -218 104 -371 -15 -35 -27 -64 -45 -66 -41 -2 5 9 26 23
47 57 84 56 48 53 1180 l-3 1039 -34 73 c-26 55 -51 88 -103 137 -37 36 -68
66 -68 69 0 2 46 2 103 0 56 -2 224 -6 372 -9z m1249 -11 c22 -9 10 -23 -14
-17 -11 3 -17 9 -14 14 6 11 8 11 28 3z m39 -9 c-3 -9 -8 -14 -10 -11 -3 3 -2
9 2 15 9 16 15 13 8 -4z m-78 -34 c-4 -13 0 -17 17 -17 13 1 23 -5 23 -11 0
-7 -4 -12 -10 -10 -5 1 -9 5 -7 10 3 11 -16 9 -23 -3 -3 -5 -2 -10 3 -10 6 0
12 -6 15 -14 7 -17 -33 -76 -51 -76 -7 0 -10 -6 -7 -12 4 -7 -1 -4 -9 6 -11
13 -12 23 -6 31 5 7 6 16 2 21 -4 4 0 3 9 -4 19 -15 49 -6 49 14 0 10 -7 13
-25 8 -16 -4 -25 -2 -25 6 0 6 5 8 10 5 16 -10 33 5 21 18 -11 15 -2 69 11 61
5 -3 6 -14 3 -23z m4649 10 c17 -19 16 -21 -41 -75 -32 -31 -54 -56 -50 -56 5
0 32 23 62 50 l53 51 21 -30 c12 -16 21 -33 21 -38 -1 -4 -55 -34 -122 -66
-107 -51 -123 -56 -136 -43 -13 13 -4 27 73 120 48 58 91 106 95 106 4 0 15
-9 24 -19z m-4584 -5 c0 -3 -4 -8 -10 -11 -5 -3 -10 -1 -10 4 0 6 5 11 10 11
6 0 10 -2 10 -4z m3564 -12 c20 -8 21 -57 2 -74 -26 -21 -61 -8 -64 23 -5 45
21 67 62 51z m1110 -130 c17 -46 11 -50 -101 -66 l-108 -16 108 -1 c100 -1
107 -2 107 -21 0 -18 -7 -20 -67 -21 -71 -1 -69 -4 10 -14 41 -5 47 -9 47 -29
0 -46 -18 -46 -150 -8 -69 20 -126 37 -128 38 -2 1 0 13 4 28 4 16 13 26 24
26 10 0 20 4 22 9 3 10 193 90 214 90 7 1 15 -6 18 -15z m-2680 -84 c109 -27
169 -63 256 -150 56 -56 86 -97 115 -155 38 -77 70 -185 55 -185 -4 0 -36 13
-71 29 -35 16 -104 41 -154 57 -63 20 -96 36 -112 55 -36 43 -117 73 -198 73
-93 1 -162 -36 -217 -115 -67 -95 -68 -111 -68 -684 1 -550 5 -609 53 -717 34
-76 95 -140 160 -168 44 -19 63 -22 132 -17 77 5 183 34 211 58 11 9 14 58 14
232 l0 220 -36 -6 c-50 -8 -114 -53 -127 -88 -6 -16 -14 -29 -17 -28 -3 0 -23
37 -45 82 -22 45 -63 118 -91 163 l-51 81 74 7 c137 11 337 70 502 147 57 27
106 49 107 49 2 0 4 -245 4 -544 l0 -545 -107 -34 c-162 -52 -229 -62 -408
-62 -196 0 -281 20 -408 97 -178 107 -288 263 -334 473 -13 58 -15 160 -15
580 0 280 4 536 7 569 29 249 233 480 469 531 92 20 211 18 300 -5z m-1363
-20 c127 -39 247 -142 305 -259 61 -125 58 -78 64 -916 l5 -770 28 -57 c16
-32 33 -58 39 -58 6 0 9 -3 5 -6 -3 -4 -44 20 -91 51 -72 49 -94 59 -139 63
-66 5 -101 -9 -190 -77 -65 -50 -99 -62 -64 -23 9 10 29 44 44 77 l28 60 3
448 c2 324 0 447 -8 447 -33 0 -180 -34 -180 -42 0 -5 5 -19 11 -30 8 -15 8
-19 0 -14 -6 4 -11 2 -11 -4 0 -7 -7 -4 -16 5 -15 14 -17 14 -30 -2 -13 -17
-13 -17 -14 0 0 9 4 17 10 17 5 0 7 7 4 15 -8 21 -26 19 -22 -2 2 -11 -6 -22
-19 -28 -13 -5 -23 -15 -23 -22 0 -7 -12 -15 -27 -19 -16 -3 -43 -10 -62 -15
-23 -5 -39 -5 -48 3 -10 8 -13 6 -14 -8 0 -18 -1 -18 -9 1 -9 19 -9 19 -16 -3
-5 -16 -12 -21 -25 -17 -11 4 -19 2 -19 -6 0 -8 -10 -9 -30 -5 -17 3 -29 2
-26 -3 4 -5 -8 -14 -26 -20 -39 -14 -36 -14 -41 7 -4 16 -12 -365 -12 -592 0
-90 -2 -100 -20 -107 -11 -4 -23 -8 -27 -8 -3 -1 -4 58 -1 130 5 106 3 133 -8
140 -10 6 -10 9 -1 9 9 0 11 38 7 173 -2 94 -1 198 4 230 8 62 8 62 -19 47
-17 -9 -18 -29 -19 -295 0 -157 -3 -296 -7 -310 -10 -42 -244 -258 -261 -241
-2 1 10 27 26 57 16 30 34 81 40 114 6 35 10 298 11 639 1 589 2 613 42 736
40 125 86 198 188 301 78 79 110 103 182 139 112 55 169 68 304 69 85 1 127
-4 175 -19z m2239 -14 c157 -3 339 -10 405 -16 141 -11 408 -41 414 -46 2 -2
-16 -33 -39 -70 -23 -37 -55 -96 -71 -132 l-29 -65 -68 7 c-37 3 -107 11 -157
16 -49 5 -141 10 -203 10 l-114 0 4 -177 c2 -98 1 -213 -2 -256 l-5 -78 240 1
240 2 3 -29 c5 -49 33 -173 48 -209 8 -18 14 -37 14 -41 0 -5 -39 -5 -87 -1
-49 3 -170 7 -270 7 l-182 1 0 -281 c-1 -154 -4 -292 -7 -306 -6 -21 -4 -24
12 -20 47 14 210 19 379 12 l185 -7 5 -27 c15 -73 50 -172 81 -224 l34 -59
-27 6 c-125 25 -368 46 -538 46 -175 0 -335 -29 -428 -77 -16 -8 -31 -13 -33
-10 -2 2 8 31 23 63 l28 59 3 769 c2 510 -1 787 -8 820 -22 108 -92 217 -179
281 -22 17 -41 33 -41 36 0 4 19 5 43 3 23 -2 170 -6 327 -8z m1817 -53 c-3
-10 -5 -4 -5 12 0 17 2 24 5 18 2 -7 2 -21 0 -30z m-3509 -6 c4 -37 -15 -59
-47 -55 -20 2 -27 9 -29 31 -4 37 15 59 47 55 20 -2 27 -9 29 -31z m3200 -132
c76 -18 120 -40 232 -115 84 -56 150 -93 181 -103 14 -4 8 -15 -26 -52 -24
-25 -64 -87 -90 -136 l-46 -89 -45 59 c-83 110 -153 152 -266 159 -69 4 -83 2
-133 -23 -62 -30 -102 -80 -112 -138 -19 -119 67 -204 222 -222 33 -4 88 -13
121 -20 187 -42 337 -169 405 -343 18 -46 22 -78 23 -162 0 -91 -4 -115 -28
-180 -64 -168 -158 -264 -319 -324 -84 -32 -190 -38 -312 -19 -185 29 -318
122 -421 293 -41 69 -90 197 -80 207 2 3 38 -7 79 -21 42 -14 84 -26 95 -26
12 0 38 -21 64 -52 130 -156 324 -211 474 -135 144 73 219 258 147 364 -68
100 -168 146 -373 173 -190 25 -306 94 -387 230 -65 110 -71 271 -15 393 39
85 131 183 212 226 121 65 271 86 398 56z m-2288 -336 c24 -5 72 -23 106 -39
128 -61 206 -180 207 -315 0 -46 -5 -80 -13 -90 -14 -17 -30 -20 -30 -4 0 5 5
7 11 3 8 -5 8 -1 0 14 -6 11 -11 30 -11 41 0 12 -5 21 -11 21 -5 0 -7 6 -3 13
4 7 2 7 -7 -2 -11 -10 -11 -15 -1 -18 7 -3 12 -22 12 -48 0 -39 -3 -44 -32
-54 -17 -6 -32 -10 -33 -9 -11 14 -22 68 -14 68 5 0 9 5 9 11 0 5 -4 8 -9 5
-11 -7 -26 49 -41 148 -14 95 -18 106 -36 106 -18 0 -21 -31 -8 -88 8 -37 -11
-19 -66 64 -52 76 -70 90 -70 53 0 -18 -4 -20 -25 -15 -35 9 -31 -5 18 -62 45
-54 143 -209 136 -217 -3 -2 -46 9 -97 25 -104 34 -112 35 -112 17 0 -25 45
-54 125 -82 83 -29 128 -62 103 -76 -7 -4 -55 -14 -107 -23 -93 -16 -95 -16
-117 5 -12 11 -36 48 -54 80 -53 99 -56 247 -9 405 l22 74 56 0 c31 0 76 -5
101 -11z m1218 -78 c22 -13 11 -65 -14 -69 -31 -4 -50 23 -36 53 12 26 27 31
50 16z m-2700 -446 c-3 -3 -9 2 -12 12 -6 14 -5 15 5 6 7 -7 10 -15 7 -18z
m-28 7 c0 -13 -12 -22 -22 -16 -10 6 -1 24 13 24 5 0 9 -4 9 -8z m-19 -27 c30
-13 31 -14 9 -13 -14 0 -34 -3 -45 -7 l-20 -8 20 17 c17 15 18 17 2 12 -11 -3
-16 -2 -12 4 8 13 6 13 46 -5z m-1043 -194 c-21 -40 -111 -101 -122 -82 -10
15 38 75 79 98 58 33 67 29 43 -16z m4810 -12 c28 -5 58 -16 68 -24 16 -11 13
-13 -31 -11 -107 5 -206 -31 -289 -105 l-49 -43 -18 23 c-11 13 -19 27 -19 31
0 13 81 80 122 101 71 37 137 45 216 28z m-932 -54 c34 -52 -15 -112 -71 -87
-54 25 -35 112 25 112 20 0 35 -8 46 -25z m987 -128 c1 -36 5 -63 9 -61 5 3 8
12 8 20 0 8 5 14 10 14 13 0 -2 -31 -24 -49 -13 -11 -15 -1 -18 73 -2 47 1 81
5 77 5 -4 9 -38 10 -74z m-5068 58 c26 -10 37 -22 41 -45 4 -20 12 -30 24 -30
13 0 17 6 13 19 -4 17 -1 19 19 13 18 -5 19 -7 6 -10 -14 -3 -16 -7 -8 -23 16
-29 3 -39 -30 -23 -16 9 -34 13 -40 9 -5 -3 -10 1 -10 9 0 17 -94 33 -129 21
-35 -11 -80 -55 -103 -99 -37 -71 -35 -286 3 -286 5 0 9 4 9 8 0 5 7 9 15 9 8
0 15 -6 15 -14 0 -7 5 -13 10 -13 14 0 12 13 -5 36 -8 10 -15 14 -15 7 0 -12
-40 -6 -40 7 0 5 -3 17 -6 27 -5 17 -5 17 6 1 6 -10 18 -18 27 -18 14 0 14 2
-3 16 -16 13 -16 15 -1 10 11 -3 17 0 17 10 0 11 -6 13 -20 9 -14 -4 -20 -2
-20 9 0 26 44 3 48 -25 2 -13 8 -28 14 -34 8 -7 9 -4 4 8 -3 10 -3 29 0 42 5
21 8 23 20 10 11 -11 12 -19 5 -34 -8 -14 -8 -21 2 -24 7 -3 5 -6 -5 -6 -10
-1 -18 -7 -18 -15 0 -9 7 -12 20 -9 11 3 20 10 20 15 0 6 6 8 14 5 10 -4 14 0
13 14 -1 21 -13 25 -20 7 -2 -7 -8 -10 -12 -6 -4 4 -1 18 8 31 9 14 14 35 11
48 -2 13 -1 17 2 9 11 -24 34 -43 42 -35 4 4 1 10 -5 12 -7 3 -13 12 -13 20 0
9 6 13 15 9 10 -4 15 1 15 14 0 12 7 20 16 20 22 0 39 20 48 55 8 29 8 29 17
8 4 -13 14 -23 21 -22 10 0 10 2 1 6 -14 5 -17 61 -5 81 5 7 21 15 35 18 22 4
29 0 37 -21 13 -33 13 -135 1 -135 -5 0 -7 -9 -4 -20 4 -16 2 -19 -12 -13 -16
5 -17 2 -12 -26 6 -27 4 -32 -8 -27 -8 3 -15 1 -15 -4 0 -6 6 -10 13 -10 8 -1
7 -5 -4 -13 -9 -7 -19 -19 -22 -27 -4 -9 -5 -6 -3 8 2 12 -1 22 -7 22 -8 0 -7
4 1 12 16 16 15 25 -2 25 -9 0 -13 -9 -11 -24 1 -12 -2 -23 -7 -23 -5 0 -6 -4
-3 -10 4 -6 -1 -7 -11 -3 -12 4 -15 2 -12 -8 3 -8 11 -13 17 -11 14 3 15 -15
1 -23 -5 -3 -10 -2 -10 4 0 6 -8 8 -17 5 -16 -5 -16 -4 -3 6 12 9 10 11 -12 7
-16 -2 -28 0 -28 4 0 5 -5 9 -11 9 -6 0 -9 -7 -5 -15 4 -10 -1 -15 -14 -15
-11 0 -20 -6 -20 -12 0 -7 -5 -5 -11 5 -10 18 -12 18 -30 1 -16 -15 -24 -16
-39 -7 -16 11 -18 8 -22 -22 -2 -19 1 -36 7 -38 5 -3 6 -8 2 -13 -5 -5 -28 12
-52 37 -82 87 -99 244 -40 365 55 112 182 171 280 129z m1111 -49 c11 -45 2
-61 -36 -61 -31 0 -35 3 -38 28 -4 35 13 57 44 57 17 0 25 -7 30 -24z m3761
-102 c-6 -6 -77 25 -77 34 1 4 7 18 15 32 14 24 14 24 15 3 0 -12 -6 -23 -12
-26 -7 -2 2 -11 20 -21 l32 -17 2 53 2 53 3 -54 c2 -29 2 -55 0 -57z m-4939
18 c5 -34 -24 -70 -53 -64 -33 6 -47 25 -43 59 4 37 44 58 73 39 11 -7 21 -23
23 -34z m5052 -22 c0 -5 -10 -10 -22 -9 -22 0 -22 1 -3 9 11 5 21 9 23 9 1 1
2 -3 2 -9z m-5155 -91 c0 -17 -6 -25 -22 -27 -17 -3 -23 2 -23 15 0 22 20 45
35 40 5 -2 10 -15 10 -28z m1267 -166 c21 -19 23 -52 5 -77 -19 -26 -68 -18
-86 15 -13 24 -13 29 2 53 20 30 52 34 79 9z m-492 -68 c0 -22 -5 -35 -13 -35
-9 0 -12 11 -9 35 2 19 8 35 13 35 5 0 9 -16 9 -35z m-653 11 c0 -8 -6 -12
-15 -9 -11 5 -11 7 0 14 7 5 13 9 14 9 0 0 1 -6 1 -14z m-12 -36 c-3 -5 -12
-10 -18 -10 -7 0 -6 4 3 10 19 12 23 12 15 0z m589 -11 c-4 -8 1 -9 17 -5 l24
6 -23 -12 c-24 -12 -38 -6 -27 11 3 6 8 11 11 11 3 0 2 -5 -2 -11z m4229 -56
c13 -4 17 -16 17 -52 1 -25 7 -74 14 -108 7 -34 12 -64 9 -66 -2 -2 3 -10 12
-17 8 -7 15 -26 15 -42 0 -19 10 -38 28 -55 15 -15 21 -23 14 -18 -26 14 5
-31 55 -81 53 -53 128 -104 152 -104 14 0 14 1 1 10 -13 8 -12 10 3 10 9 0 17
7 17 15 0 8 7 15 16 15 8 0 12 5 9 10 -3 6 1 10 9 10 18 0 47 40 39 53 -3 6
-1 7 5 3 8 -5 12 1 13 16 l2 23 4 -22 c6 -30 28 -29 50 2 10 14 36 49 58 77
22 29 61 93 88 143 l47 90 -6 -50 c-9 -71 -31 -130 -74 -205 -67 -114 -181
-210 -233 -196 -15 4 -17 2 -8 -7 6 -6 23 -11 37 -12 l26 0 3 -296 3 -297 -70
-6 c-38 -4 -72 -5 -75 -2 -3 3 -5 132 -4 288 0 156 -3 288 -7 293 -4 6 -27 19
-52 30 -24 11 -73 47 -108 79 -101 95 -146 189 -161 334 -11 108 -5 156 18
146 9 -3 24 -9 34 -11z m104 -135 c-3 -8 -6 -5 -6 6 -1 11 2 17 5 13 3 -3 4
-12 1 -19z m-3867 -117 c372 -61 691 -182 955 -362 90 -61 138 -99 270 -213
l40 -35 100 90 c131 118 247 195 430 284 222 109 530 204 776 241 211 31 657
29 854 -5 l39 -6 63 -500 c34 -275 69 -572 78 -660 9 -88 34 -315 57 -505 54
-458 52 -440 41 -440 -5 0 -61 9 -124 21 -376 68 -852 78 -1164 23 -371 -64
-669 -185 -880 -357 -73 -59 -175 -174 -175 -196 0 -4 -43 -6 -96 -5 l-96 2
-27 44 c-43 68 -88 115 -175 182 -188 145 -408 239 -727 310 -206 45 -274 51
-614 50 -332 0 -410 -7 -688 -55 -65 -12 -120 -19 -122 -17 -5 4 68 718 99
978 14 113 28 234 32 270 3 36 21 187 39 335 18 149 39 327 46 397 l12 126 61
8 c173 20 233 22 491 19 223 -3 305 -7 405 -24z m-1570 -28 l37 -38 6 -190 c4
-104 7 -292 7 -416 l0 -226 -87 -6 c-47 -3 -90 -4 -95 -1 -12 8 -10 791 3 837
9 35 55 77 83 77 4 0 25 -17 46 -37z m2593 5 c22 -26 22 -50 -1 -78 -37 -46
-112 -15 -112 46 0 13 9 33 21 45 25 25 64 19 92 -13z m2857 0 c0 -13 3 -34 6
-48 5 -24 5 -25 -11 -5 -9 11 -18 19 -21 17 -3 -2 -8 -1 -11 2 -3 3 2 8 11 12
11 4 15 13 11 25 -4 11 -2 19 4 19 6 0 11 -10 11 -22z m316 -2 c3 -13 4 -35 1
-47 -4 -21 -4 -21 -6 4 0 16 -5 26 -11 22 -6 -4 -10 5 -10 19 0 33 18 34 26 2z
m-19 -93 c-3 -10 -5 -4 -5 12 0 17 2 24 5 18 2 -7 2 -21 0 -30z m-254 -19 c20
-22 23 -31 12 -31 -8 0 -15 7 -15 14 0 8 -4 11 -10 8 -5 -3 -10 1 -10 10 0 9
-4 13 -10 10 -6 -3 -7 1 -4 10 4 9 7 15 8 13 0 -2 13 -17 29 -34z m-2630 -35
c29 -16 37 -28 37 -61 0 -27 -39 -68 -65 -68 -7 0 -24 9 -39 21 -35 28 -35 70
0 98 31 24 37 25 67 10z m-2354 -141 c-10 -73 -25 -209 -33 -303 -23 -244 -47
-425 -58 -425 -5 0 -7 -4 -4 -9 6 -9 -91 -27 -100 -18 -4 4 20 224 77 702 11
93 23 173 27 177 6 6 90 16 103 11 3 -1 -3 -62 -12 -135z m4689 136 c26 -5 30
-11 36 -53 55 -399 106 -794 106 -820 0 -7 -22 -11 -55 -11 -46 0 -55 3 -55
18 -1 9 -25 206 -54 437 -29 231 -51 423 -49 428 5 9 30 9 71 1z m357 -24
c-12 -5 -14 -9 -6 -9 8 -1 12 -4 8 -7 -9 -9 -28 6 -22 17 4 5 14 9 23 8 14 0
13 -2 -3 -9z m-6080 -74 c-5 -16 -4 -17 4 -7 8 12 12 13 26 1 13 -10 13 -15 3
-21 -9 -6 -8 -9 7 -9 14 0 16 -3 8 -11 -6 -6 -9 -18 -6 -27 5 -11 3 -13 -7 -7
-10 6 -11 2 -6 -18 5 -21 3 -25 -9 -20 -9 3 -14 11 -11 18 3 8 -1 16 -8 18
-15 6 -28 47 -15 47 5 0 9 -5 9 -12 0 -6 3 -8 7 -4 5 4 0 13 -10 20 -20 15
-20 67 0 59 8 -3 11 -14 8 -27z m6753 -43 c-9 -10 -18 -29 -20 -42 -4 -31 -24
-38 -31 -11 -4 17 -3 19 9 9 11 -9 14 -8 14 9 0 29 11 53 21 46 5 -3 9 0 9 7
0 7 3 9 7 6 3 -4 -1 -15 -9 -24z m-6649 -81 c8 -28 7 -32 -10 -32 -22 0 -24
11 -7 28 9 9 9 12 0 12 -6 0 -9 7 -6 15 4 8 1 15 -5 15 -6 0 -11 5 -11 12 0
22 30 -16 39 -50z m-109 28 c0 -5 -2 -10 -4 -10 -3 0 -8 5 -11 10 -3 6 -1 10
4 10 6 0 11 -4 11 -10z m50 -60 c0 -5 -2 -10 -4 -10 -3 0 -8 5 -11 10 -3 6 -1
10 4 10 6 0 11 -4 11 -10z m-15 -20 c3 -5 -3 -10 -15 -10 -12 0 -18 5 -15 10
3 6 10 10 15 10 5 0 12 -4 15 -10z m95 -2 c0 -11 -12 -10 -30 2 -12 7 -10 9 8
7 12 0 22 -5 22 -9z m6612 -30 c-6 -6 -8 -1 -7 14 3 32 7 36 12 14 3 -10 1
-22 -5 -28z m-6644 2 c7 -12 8 -21 2 -25 -6 -3 -10 1 -10 10 0 13 -4 14 -21 5
-11 -7 -27 -9 -35 -6 -8 3 -14 1 -14 -3 0 -5 5 -11 11 -13 7 -2 20 -24 30 -48
10 -25 18 -37 18 -27 1 9 6 17 13 17 6 0 8 -3 5 -7 -4 -3 -2 -12 5 -20 6 -7 8
-16 5 -19 -10 -10 -46 16 -53 38 -10 32 -29 49 -42 36 -6 -6 -12 -6 -17 3 -5
7 -4 10 3 5 6 -4 12 4 14 21 2 23 8 28 30 28 15 1 30 4 34 8 4 4 2 7 -4 7 -7
0 -12 4 -12 10 0 14 24 2 38 -20z m36 -45 c-4 -8 -10 -12 -15 -9 -14 8 -10 24
6 24 9 0 12 -6 9 -15z m-47 -27 c-3 -8 -6 -5 -6 6 -1 11 2 17 5 13 3 -3 4 -12
1 -19z m6622 -70 c-1 -29 -3 -45 -6 -35 -5 21 -23 23 -23 2 0 -8 -5 -15 -10
-15 -7 0 -7 6 0 19 14 27 13 31 -7 25 -17 -5 -17 -5 0 6 9 6 17 19 17 28 0 15
2 15 10 2 8 -13 10 -12 10 3 0 9 2 17 5 17 3 0 4 -24 4 -52z m-6574 -28 c2
-30 -10 -41 -17 -18 -6 16 3 60 10 53 3 -2 6 -18 7 -35z m-15 -46 c0 -2 -7 -4
-15 -4 -8 0 -15 4 -15 10 0 5 7 7 15 4 8 -4 15 -8 15 -10z m6567 -116 c-2 -13
-4 -5 -4 17 -1 22 1 32 4 23 2 -10 2 -28 0 -40z m-6547 17 c0 -8 -4 -15 -10
-15 -5 0 -7 7 -4 15 4 8 8 15 10 15 2 0 4 -7 4 -15z m-10 -133 c0 -5 -7 -9
-15 -9 -8 0 -12 4 -9 9 3 4 9 8 15 8 5 0 9 -4 9 -8z m2 -44 c-7 -7 -12 -8 -12
-2 0 14 12 26 19 19 2 -3 -1 -11 -7 -17z m-37 2 c8 -13 -5 -13 -25 0 -13 8
-13 10 2 10 9 0 20 -4 23 -10z m565 -20 c20 -20 27 -74 12 -97 -5 -8 -40 -11
-107 -10 -55 1 -131 0 -170 -3 -69 -5 -70 -5 -83 23 -15 32 -10 68 14 91 13
13 42 16 165 16 136 0 151 -2 169 -20z m5720 0 c25 -13 36 -54 22 -84 -10 -22
-12 -23 -189 -22 l-178 1 -3 47 c-3 39 1 49 20 63 20 15 42 16 166 11 78 -3
151 -10 162 -16z m317 -192 c-3 -8 -6 -5 -6 6 -1 11 2 17 5 13 3 -3 4 -12 1
-19z m-6025 -15 c21 -22 22 -35 40 -400 18 -400 16 -449 -23 -529 -36 -75
-121 -134 -191 -134 -82 1 -175 79 -202 171 -22 72 -18 333 10 788 9 135 7
134 195 129 138 -3 150 -5 171 -25z m5677 21 c58 -12 58 -15 75 -440 16 -426
13 -478 -34 -547 -48 -69 -134 -104 -212 -84 -60 15 -129 86 -158 162 l-22 60
14 400 c9 220 18 407 22 416 4 9 17 21 29 27 24 12 236 16 286 6z m-6225 -10
c20 -8 21 -40 0 -48 -8 -3 -12 -2 -9 4 3 6 1 10 -5 10 -6 0 -8 5 -4 11 3 6 0
15 -7 20 -16 10 1 12 25 3z m13 -86 c-3 -7 -5 -2 -5 12 0 14 2 19 5 13 2 -7 2
-19 0 -25z m6561 -1 c1 -17 -3 -39 -9 -47 -6 -11 -8 -3 -5 25 3 22 5 43 5 48
2 20 8 3 9 -26z m-6558 -77 c0 -24 -3 -28 -17 -23 -11 4 -12 8 -5 11 7 2 12
12 12 23 0 10 2 19 5 19 3 0 5 -13 5 -30z m6550 6 c0 -3 -4 -8 -10 -11 -5 -3
-10 -1 -10 4 0 6 5 11 10 11 6 0 10 -2 10 -4z m-6585 -116 c-3 -5 -11 -10 -16
-10 -6 0 -7 5 -4 10 3 6 11 10 16 10 6 0 7 -4 4 -10z m6572 -16 c-3 -3 -12 -4
-19 -1 -8 3 -5 6 6 6 11 1 17 -2 13 -5z m-6570 -20 c-3 -3 -12 -4 -19 -1 -8 3
-5 6 6 6 11 1 17 -2 13 -5z m-47 -14 c0 -5 -2 -10 -4 -10 -3 0 -8 5 -11 10 -3
6 -1 10 4 10 6 0 11 -4 11 -10z m54 -11 c-2 -4 -1 -15 2 -24 6 -13 9 -14 16
-3 8 10 9 10 5 -2 -6 -22 -31 -18 -36 5 -2 11 -8 23 -15 27 -6 4 -1 6 11 5 12
0 20 -4 17 -8z m6556 -115 c0 -8 -5 -12 -10 -9 -6 4 -8 11 -5 16 9 14 15 11
15 -7z m-6560 -34 c0 -5 -5 -10 -11 -10 -5 0 -7 5 -4 10 3 6 8 10 11 10 2 0 4
-4 4 -10z m6560 -30 c0 -5 -4 -10 -10 -10 -5 0 -10 5 -10 10 0 6 5 10 10 10 6
0 10 -4 10 -10z m-6560 -45 c-7 -8 -17 -12 -22 -9 -6 4 -5 10 3 15 22 14 33
10 19 -6z m-46 -21 c4 -10 12 -14 24 -9 14 5 15 4 5 -6 -7 -7 -13 -21 -13 -30
0 -10 -6 -20 -12 -22 -10 -4 -9 -8 2 -16 8 -5 12 -12 10 -15 -3 -2 -13 2 -23
9 -16 11 -16 14 -2 28 20 20 19 37 -2 37 -9 0 -13 3 -10 7 4 3 -1 12 -11 19
-16 12 -15 13 4 14 12 0 25 -7 28 -16z m76 6 c0 -5 -5 -10 -11 -10 -5 0 -7 5
-4 10 3 6 8 10 11 10 2 0 4 -4 4 -10z m6526 -78 c-13 -12 -17 8 -9 44 l8 39 3
-39 c2 -21 1 -41 -2 -44z m44 54 c0 -11 -19 -15 -25 -6 -3 5 1 10 9 10 9 0 16
-2 16 -4z m-6667 -31 c-21 -15 -34 -10 -27 9 3 8 14 12 25 9 18 -5 18 -6 2
-18z m82 15 c3 -5 1 -10 -4 -10 -6 0 -11 5 -11 10 0 6 2 10 4 10 3 0 8 -4 11
-10z m6576 -56 c-6 -11 -11 -14 -11 -9 -1 6 -4 21 -6 35 -4 23 -3 24 12 9 12
-13 14 -21 5 -35z m-6565 12 c1 -10 0 -11 -3 -2 -2 8 -13 12 -26 9 -18 -4 -19
-3 -7 6 19 14 35 9 36 -13z m-10 -39 c9 -19 7 -23 -8 -24 -21 -2 -32 12 -24
32 8 21 19 18 32 -8z m6531 -44 c-2 -16 -4 -5 -4 22 0 28 2 40 4 28 2 -13 2
-35 0 -50z m32 -14 c2 36 15 16 16 -24 2 -37 -10 -47 -19 -17 -4 14 -5 14 -4
-3 1 -47 -3 -66 -12 -60 -5 3 -10 -3 -10 -15 0 -13 4 -19 12 -14 7 4 8 3 4 -4
-16 -26 -24 -9 -22 52 0 35 4 59 8 53 4 -7 8 8 9 33 l2 45 7 -35 c6 -26 8 -29
9 -11z m-6589 7 c0 -11 -19 -15 -25 -6 -3 5 1 10 9 10 9 0 16 -2 16 -4z m25
-26 c3 -5 1 -10 -4 -10 -6 0 -11 5 -11 10 0 6 2 10 4 10 3 0 8 -4 11 -10z
m-25 -54 c0 -3 -4 -8 -10 -11 -5 -3 -10 -1 -10 4 0 6 5 11 10 11 6 0 10 -2 10
-4z m6610 -12 c0 -8 -5 -12 -10 -9 -6 4 -8 11 -5 16 9 14 15 11 15 -7z m-6577
-9 c4 -8 2 -17 -3 -20 -6 -4 -10 3 -10 14 0 25 6 27 13 6z m1 -61 c3 -8 2 -12
-4 -9 -6 3 -10 10 -10 16 0 14 7 11 14 -7z m6576 -34 c0 -5 -7 -10 -15 -10 -8
0 -15 5 -15 10 0 6 7 10 15 10 8 0 15 -4 15 -10z m-4700 -35 c354 -16 754
-131 983 -285 72 -48 76 -53 70 -80 -6 -32 -2 -35 26 -21 13 7 20 5 29 -10 12
-18 11 -19 -6 -10 -16 9 -18 6 -15 -26 2 -34 1 -35 -13 -17 -15 18 -15 18 -11
-3 4 -15 0 -23 -9 -23 -8 0 -14 7 -14 15 0 8 -4 14 -8 12 -5 -1 -29 11 -55 28
-42 26 -45 31 -32 44 8 8 18 11 22 7 4 -4 1 -12 -7 -17 -12 -9 -11 -10 4 -5
10 4 25 1 32 -5 8 -6 14 -8 15 -3 1 5 5 -2 10 -16 l8 -25 -2 25 c-1 14 2 31 7
38 6 10 2 11 -17 7 -14 -4 -28 -2 -31 4 -5 7 -1 8 9 5 12 -5 14 -2 8 12 -6 17
-5 17 10 6 9 -8 22 -12 29 -10 15 5 -67 39 -106 44 -38 5 -83 34 -67 43 10 6
-120 58 -160 64 -8 2 -19 6 -26 10 -6 4 -19 4 -29 0 -11 -4 -15 -3 -10 5 4 7
-18 18 -64 32 -96 29 -224 50 -228 39 -2 -5 -11 -9 -20 -9 -15 0 -15 2 -2 10
16 10 12 11 -30 14 -14 0 -28 5 -32 10 -4 6 -13 4 -23 -4 -14 -11 -16 -11 -13
1 5 24 -48 23 -74 -1 l-23 -21 -3 25 c-2 17 -10 26 -20 26 -14 0 -14 -2 -3 -9
21 -13 6 -61 -19 -61 -11 0 -20 4 -20 8 0 5 -25 7 -56 4 -41 -3 -55 -2 -50 7
4 6 12 9 17 5 6 -3 27 -3 46 1 27 5 33 9 22 16 -8 5 -27 9 -42 9 -15 0 -30 7
-33 15 -4 8 -16 15 -28 14 -11 0 -15 -3 -8 -6 18 -7 15 -25 -5 -22 -30 3 -43
-1 -43 -11 0 -5 14 -10 30 -10 17 0 30 -4 30 -9 0 -5 -13 -8 -30 -7 -16 0 -30
4 -30 8 0 5 -7 8 -15 8 -8 0 -15 5 -15 10 0 6 6 10 14 10 17 0 41 28 32 37 -3
3 -14 -1 -24 -10 -22 -20 -32 -21 -32 -4 0 9 -26 12 -103 11 -56 -1 -148 -2
-204 -3 -86 -1 -101 -3 -97 -16 4 -8 11 -12 18 -8 7 4 7 1 -1 -7 -10 -11 -16
-11 -31 3 -19 17 -102 25 -102 10 0 -5 -21 -9 -47 -10 -90 -3 -118 -6 -100
-10 24 -6 18 -35 -11 -48 -12 -5 -22 -13 -22 -17 0 -4 -7 -5 -15 -2 -8 4 -15
13 -15 20 0 19 -41 34 -56 20 -8 -8 -8 -14 3 -24 23 -24 15 -29 -59 -35 -73
-6 -105 -21 -79 -36 10 -6 5 -11 -18 -16 -18 -4 -34 -5 -37 -2 -4 4 14 149 19
153 9 6 257 47 372 60 156 18 443 32 550 27 39 -1 122 -5 185 -8z m4699 -12
c-1 -22 -2 -23 -6 -8 -3 11 -10 23 -17 27 -7 5 -5 8 7 8 12 0 17 -7 16 -27z
m-6665 -22 c-6 -6 -34 20 -34 32 0 6 8 2 19 -9 10 -10 17 -21 15 -23z m5293
28 c127 -11 471 -64 482 -74 3 -4 8 -32 11 -64 5 -49 3 -58 -10 -56 -8 2 -19
4 -24 4 -4 1 -5 8 -2 17 5 13 3 14 -7 6 -15 -13 -57 -12 -57 1 0 5 -7 7 -15 4
-24 -10 -42 39 -20 55 6 4 2 8 -7 8 -10 0 -18 -4 -18 -10 0 -5 -4 -10 -10 -10
-5 0 -9 6 -7 13 1 6 -7 12 -18 12 -11 0 -19 -6 -18 -12 2 -9 -9 -13 -32 -13
-19 0 -35 5 -35 11 0 5 4 8 8 5 5 -3 9 1 9 9 0 8 -3 12 -7 10 -3 -2 -24 0 -46
5 -79 19 -223 30 -230 19 -3 -5 -11 -9 -17 -9 -7 0 -6 4 3 10 11 8 8 10 -15 7
-16 -2 -45 0 -62 4 -18 4 -33 3 -33 -2 0 -4 -6 -6 -13 -3 -25 9 -117 9 -117
-1 0 -5 7 -19 15 -29 19 -25 19 -37 1 -30 -8 3 -16 18 -20 35 -7 38 -24 38
-18 -1 3 -23 0 -30 -13 -30 -13 0 -16 7 -13 32 3 32 3 32 -42 31 -98 -1 -120
-3 -120 -14 0 -6 7 -9 15 -5 23 8 45 -4 45 -25 0 -14 -7 -19 -30 -19 -16 0
-30 -4 -30 -9 0 -5 -15 -9 -32 -9 -18 -1 -77 -3 -130 -6 -57 -3 -98 -1 -98 5
0 5 -7 9 -15 9 -8 0 -15 5 -15 10 0 6 6 10 14 10 8 0 16 7 20 15 8 21 -22 19
-61 -5 -25 -15 -31 -16 -26 -4 4 12 0 14 -23 8 -16 -4 -30 -11 -32 -15 -2 -5
-17 -6 -33 -2 -28 5 -30 4 -25 -21 4 -22 1 -26 -20 -26 -13 0 -24 -4 -24 -10
0 -5 13 -8 30 -7 16 1 30 4 30 7 0 3 17 7 37 8 53 4 30 -14 -27 -21 -25 -4
-61 -11 -80 -17 -46 -13 -47 -13 -70 10 l-21 21 7 -25 c3 -13 1 -27 -5 -30 -6
-4 -11 -3 -11 2 0 6 -11 9 -25 8 -14 0 -25 -7 -25 -13 0 -13 -36 -18 -90 -15
-20 1 -22 -1 -10 -8 13 -9 13 -11 0 -20 -20 -13 -23 -13 -46 5 -15 11 -16 14
-3 15 8 0 20 -4 27 -10 7 -5 5 -2 -3 7 -14 16 -17 16 -47 0 -23 -13 -26 -16
-10 -13 14 3 22 -1 22 -10 0 -8 -9 -14 -19 -14 -11 0 -21 -4 -23 -8 -1 -4 -38
-25 -82 -46 -58 -29 -80 -36 -86 -26 -5 9 -9 9 -14 1 -4 -6 -2 -11 3 -11 6 0
11 -5 11 -11 0 -6 -6 -9 -14 -6 -8 3 -19 -5 -26 -19 -8 -13 -17 -24 -21 -24
-8 0 -53 -42 -82 -76 -10 -12 -20 -31 -22 -44 -10 -50 -11 -51 -264 -48 l-236
3 -3 23 c-2 12 2 22 8 22 7 0 20 10 30 23 20 23 18 51 -7 76 -13 12 -16 12
-23 0 -5 -7 -12 -10 -16 -7 -9 9 3 38 15 38 14 0 51 -41 51 -57 0 -7 5 -13 11
-13 6 0 9 -10 7 -22 l-4 -23 162 -1 162 0 7 33 c8 42 113 156 201 219 170 121
538 235 899 278 146 17 536 20 712 5z m1334 -22 c-10 -9 -11 -8 -5 6 3 10 9
15 12 12 3 -3 0 -11 -7 -18z m-1704 -43 c-3 -3 -12 -4 -19 -1 -8 3 -5 6 6 6
11 1 17 -2 13 -5z m143 -19 c-7 -8 -8 -19 -4 -26 4 -7 2 -10 -5 -8 -7 3 -12 7
-11 9 7 35 14 49 22 44 5 -3 4 -11 -2 -19z m112 -37 c-7 -7 -9 -5 -7 8 2 11 4
26 6 34 1 8 4 4 6 -9 3 -13 0 -28 -5 -33z m85 5 c-3 -10 -5 -2 -5 17 0 19 2
27 5 18 2 -10 2 -26 0 -35z m36 32 c-3 -9 -8 -14 -10 -11 -3 3 -2 9 2 15 9 16
15 13 8 -4z m-383 -19 c0 -6 -9 -12 -20 -12 -12 0 -20 7 -20 17 0 12 6 16 20
12 11 -3 20 -11 20 -17z m176 -13 c-11 -11 -19 6 -11 24 8 17 8 17 12 0 3 -10
2 -21 -1 -24z m67 12 c-6 -16 -43 -21 -43 -5 0 5 7 7 15 4 10 -4 15 0 15 11 0
9 4 14 10 10 5 -3 7 -12 3 -20z m277 17 c0 -4 -10 -9 -22 -9 -18 -2 -20 0 -8
7 18 12 30 13 30 2z m-4236 -14 c-6 -10 -4 -10 7 0 17 16 36 15 36 -1 0 -7
-13 -14 -29 -15 -19 -2 -28 2 -28 13 0 8 5 15 11 15 5 0 7 -6 3 -12z m186 2
c0 -5 -4 -10 -10 -10 -5 0 -10 5 -10 10 0 6 5 10 10 10 6 0 10 -4 10 -10z
m800 -12 c0 -10 5 -18 11 -18 5 0 8 4 5 9 -16 25 55 22 84 -4 9 -8 21 -12 25
-8 5 5 4 1 -3 -9 -7 -9 -9 -18 -5 -20 4 -3 1 -3 -7 -1 -18 5 -168 23 -193 23
-10 0 -16 4 -13 9 3 4 16 6 30 4 13 -3 27 0 30 6 5 7 1 9 -9 5 -11 -5 -14 -2
-9 10 8 22 54 17 54 -6z m3200 12 c0 -5 -4 -10 -10 -10 -5 0 -10 5 -10 10 0 6
5 10 10 10 6 0 10 -4 10 -10z m71 -3 c-6 -8 -7 -18 -3 -22 4 -5 1 -5 -6 -1
-10 6 -10 11 -1 22 6 8 14 14 16 14 3 0 0 -6 -6 -13z m-1061 -17 c-24 -15 -36
-11 -14 4 10 8 21 12 24 10 2 -3 -2 -9 -10 -14z m1100 16 c0 -3 -4 -8 -10 -11
-5 -3 -10 -1 -10 4 0 6 5 11 10 11 6 0 10 -2 10 -4z m-3657 -13 c-7 -2 -21 -2
-30 0 -10 3 -4 5 12 5 17 0 24 -2 18 -5z m2509 -8 c0 -5 -5 -10 -11 -11 -8 -2
-7 -1 0 3 8 4 7 8 -2 15 -11 8 -11 9 -1 6 8 -2 14 -8 14 -13z m948 5 c0 -5 -4
-10 -10 -10 -5 0 -10 5 -10 10 0 6 5 10 10 10 6 0 10 -4 10 -10z m60 0 c0 -5
-5 -10 -11 -10 -5 0 -7 5 -4 10 3 6 8 10 11 10 2 0 4 -4 4 -10z m65 -18 c-8
-8 -25 10 -19 20 4 6 9 5 15 -3 4 -7 6 -15 4 -17z m215 6 c0 -4 -5 -10 -11
-14 -8 -4 -7 -9 2 -16 10 -7 8 -8 -6 -3 -11 4 -39 8 -62 9 -48 1 -60 16 -14
16 17 0 32 4 35 9 7 10 56 9 56 -1z m-4395 -8 c-3 -5 -14 -10 -23 -9 -14 0
-13 2 3 9 27 11 27 11 20 0z m1282 -16 c7 -2 10 -10 7 -18 -5 -14 -8 -14 -21
-1 -8 9 -18 13 -21 11 -4 -2 -15 5 -26 15 -18 18 -18 18 15 7 19 -6 40 -12 46
-14z m2983 16 c0 -5 -4 -10 -10 -10 -5 0 -10 5 -10 10 0 6 5 10 10 10 6 0 10
-4 10 -10z m-4330 -10 c-8 -5 -19 -10 -25 -10 -5 0 -3 5 5 10 8 5 20 10 25 10
6 0 3 -5 -5 -10z m5437 -4 c0 -8 -6 -12 -14 -9 -7 3 -13 9 -13 14 0 5 6 9 13
9 8 0 14 -6 14 -14z m-6545 -16 c10 0 18 -6 18 -14 0 -8 6 -16 13 -19 9 -3 7
-10 -7 -23 -18 -19 -18 -18 -11 5 6 20 4 23 -9 18 -10 -4 -16 -1 -16 8 0 8 -4
15 -9 15 -5 0 -12 8 -16 18 -5 14 -4 15 6 5 7 -7 21 -13 31 -13z m6512 -19
c17 -19 17 -19 -3 -14 -12 3 -21 10 -21 15 0 6 -7 7 -16 4 -8 -3 -12 -2 -9 4
10 16 30 12 49 -9z m-4107 -7 c-3 -3 -12 -4 -19 -1 -8 3 -5 6 6 6 11 1 17 -2
13 -5z m233 -18 c0 -2 -9 -6 -20 -9 -11 -3 -18 -1 -14 4 5 9 34 13 34 5z m-61
-35 c-15 -5 -22 6 -14 19 6 9 10 9 16 -1 5 -8 4 -15 -2 -18z m109 -6 c-2 -1
-12 -7 -24 -13 -16 -9 -21 -8 -21 4 0 8 6 13 14 10 16 -7 17 6 1 24 -7 8 -3 6
10 -4 12 -11 21 -20 20 -21z m-2648 5 c0 -5 -5 -10 -11 -10 -5 0 -7 5 -4 10 3
6 8 10 11 10 2 0 4 -4 4 -10z m6394 3 c-5 -5 -12 -12 -16 -18 -4 -6 -8 -2 -8
8 0 9 7 17 17 17 9 0 12 -3 7 -7z m-3738 -32 c-3 -4 7 -6 22 -4 21 4 24 2 12
-6 -17 -12 -10 -15 50 -25 52 -9 67 -21 51 -40 -16 -19 -31 -21 -31 -3 0 13
-87 57 -113 57 -21 0 -31 17 -15 23 20 8 30 8 24 -2z m3764 -5 c-10 -13 -40
-12 -40 1 0 3 7 3 15 0 8 -4 17 -2 20 3 4 6 9 10 12 10 3 0 0 -6 -7 -14z
m-6365 -34 c-8 -8 -25 10 -25 26 0 13 2 13 14 -4 8 -10 13 -21 11 -22z m592
-18 c-3 -3 -12 -4 -19 -1 -8 3 -5 6 6 6 11 1 17 -2 13 -5z m-245 -31 c4 -2 2
-10 -5 -18 -10 -12 -14 -11 -24 3 -23 29 -10 36 29 15z m93 -1 c-3 -3 -11 0
-18 7 -9 10 -8 11 6 5 10 -3 15 -9 12 -12z m70 -14 c7 -7 2 -8 -15 -3 -14 4
-29 12 -35 17 -7 7 -2 8 15 3 14 -4 30 -12 35 -17z m5353 7 c4 -5 -1 -5 -10
-2 -10 4 -18 2 -18 -2 0 -11 -38 -2 -45 9 -7 11 63 5 73 -5z m-2948 -157 c0
-6 -6 -5 -15 2 -8 7 -15 14 -15 16 0 2 7 1 15 -2 8 -4 15 -11 15 -16z"/>
<path d="M5629 7973 c-27 -29 -28 -32 -7 -17 22 16 54 54 45 54 -2 0 -19 -16
-38 -37z"/>
<path d="M7108 8573 c7 -3 16 -2 19 1 4 3 -2 6 -13 5 -11 0 -14 -3 -6 -6z"/>
<path d="M7185 8543 c11 -2 30 -6 42 -8 17 -4 21 -11 17 -30 -2 -14 0 -25 6
-25 5 0 10 4 10 9 0 5 15 13 33 17 l32 7 -50 18 c-27 9 -63 17 -80 17 -18 0
-22 -2 -10 -5z"/>
<path d="M7323 8503 c-7 -2 -13 -8 -13 -12 0 -12 25 -9 38 6 10 10 10 13 0 12
-7 0 -19 -3 -25 -6z"/>
<path d="M7375 8490 c3 -5 16 -10 28 -9 21 0 21 1 2 9 -28 12 -37 12 -30 0z"/>
<path d="M7454 8459 c-3 -5 -2 -9 3 -8 4 1 10 0 13 -1 18 -6 39 -7 35 0 -8 12
-44 19 -51 9z"/>
<path d="M2888 8363 c6 -2 18 -2 25 0 6 3 1 5 -13 5 -14 0 -19 -2 -12 -5z"/>
<path d="M2843 8348 c-26 -13 -30 -25 -8 -25 8 0 13 3 10 5 -3 3 3 11 13 18
20 16 15 17 -15 2z"/>
<path d="M2783 8311 c-22 -19 -22 -19 -2 -24 12 -3 18 -3 15 0 -3 3 -1 14 5
24 12 23 10 23 -18 0z"/>
<path d="M2965 8299 c-4 -5 -4 -13 -1 -16 3 -4 6 0 6 8 0 11 2 11 10 -1 6 -9
10 -10 10 -3 0 17 -17 25 -25 12z"/>
<path d="M3015 8228 c1 -13 6 -21 11 -19 10 3 7 21 -5 34 -4 4 -7 -3 -6 -15z"/>
<path d="M3040 8191 c0 -5 7 -15 17 -22 15 -13 15 -12 4 9 -12 23 -21 28 -21
13z"/>
<path d="M3089 8093 c-13 -16 -12 -17 4 -4 9 7 17 15 17 17 0 8 -8 3 -21 -13z"/>
<path d="M3120 8071 c0 -6 4 -13 10 -16 6 -3 7 1 4 9 -7 18 -14 21 -14 7z"/>
<path d="M3135 8030 c-3 -5 -1 -10 4 -10 6 0 11 5 11 10 0 6 -2 10 -4 10 -3 0
-8 -4 -11 -10z"/>
<path d="M3102 7735 c0 -16 2 -22 5 -12 2 9 2 23 0 30 -3 6 -5 -1 -5 -18z"/>
<path d="M3385 7279 c-4 -6 -4 -13 -1 -16 3 -4 6 -1 6 6 0 7 5 9 12 5 7 -4 8
-3 4 4 -9 15 -13 15 -21 1z"/>
<path d="M3400 7250 c0 -5 5 -10 11 -10 5 0 7 5 4 10 -3 6 -8 10 -11 10 -2 0
-4 -4 -4 -10z"/>
<path d="M8200 7971 c-6 -13 -10 -171 -10 -445 0 -376 2 -426 16 -441 16 -16
48 -13 69 7 6 5 11 166 13 430 2 367 1 424 -13 444 -19 29 -60 32 -75 5z"/>
<path d="M8442 7974 c-5 -8 -7 -210 -4 -447 3 -382 5 -433 20 -444 13 -11 20
-10 36 1 21 13 21 22 24 446 1 311 -1 437 -9 446 -15 19 -56 18 -67 -2z"/>
<path d="M8639 6984 c-23 -25 -23 -26 -2 -13 13 7 25 19 27 26 8 19 2 16 -25
-13z"/>
<path d="M8505 6850 c-3 -5 -1 -10 4 -10 6 0 11 5 11 10 0 6 -2 10 -4 10 -3 0
-8 -4 -11 -10z"/>
<path d="M7358 7825 c-14 -22 -37 -59 -52 -82 -14 -24 -22 -43 -17 -43 12 0
102 141 98 154 -2 6 -15 -7 -29 -29z"/>
<path d="M7005 7749 c-6 -8 79 -69 96 -69 26 0 10 21 -36 48 -30 17 -57 27
-60 21z"/>
<path d="M3940 6680 l0 -60 48 0 c60 0 92 21 92 60 0 39 -32 60 -92 60 l-48 0
0 -60z"/>
<path d="M4508 6596 c-16 -32 -16 -34 0 -38 10 -3 25 -2 34 1 15 6 15 8 -1 39
l-17 33 -16 -35z"/>
<path d="M5537 6600 c-17 -38 -10 -46 31 -38 17 3 17 5 1 38 l-17 35 -15 -35z"/>
<path d="M7700 6496 c0 -7 72 -126 76 -126 7 0 -55 118 -66 125 -5 3 -10 4
-10 1z"/>
<path d="M7552 6383 c4 -22 248 -158 248 -138 0 2 -28 20 -62 41 -35 21 -89
55 -120 76 -64 43 -71 45 -66 21z"/>
<path d="M2378 6164 c-17 -5 -18 -35 -18 -436 l0 -431 69 5 c89 7 202 58 264
120 105 105 152 306 111 478 -38 164 -152 256 -326 265 -46 2 -91 2 -100 -1z"/>
<path d="M3871 6015 c-145 -41 -285 -160 -342 -291 -37 -88 -49 -169 -49 -358
0 -156 2 -177 15 -172 81 31 378 100 568 133 l158 27 -3 260 c-4 352 -4 351
-187 351 -113 0 -118 -1 -194 -37 -53 -25 -95 -54 -130 -91 -100 -102 -136
-206 -138 -392 -1 -160 -9 -209 -34 -213 -20 -3 -21 3 -23 143 -3 188 8 260
58 360 91 187 261 279 479 261 74 -6 75 -6 46 10 -42 23 -158 27 -224 9z m79
-485 c24 -24 24 -29 4 -58 -26 -38 -84 -24 -84 21 0 53 43 74 80 37z"/>
<path d="M3992 5128 c6 -18 25 -21 25 -3 0 8 -7 15 -14 15 -8 0 -13 -5 -11
-12z"/>
<path d="M3883 5122 c-18 -3 -20 -6 -11 -16 10 -11 15 -10 26 1 17 17 14 20
-15 15z"/>
<path d="M3925 5120 c3 -5 10 -10 16 -10 5 0 9 5 9 10 0 6 -7 10 -16 10 -8 0
-12 -4 -9 -10z"/>
<path d="M3832 5104 c9 -3 19 -13 22 -22 3 -12 4 -12 3 3 -1 12 -10 21 -22 22
-15 1 -15 0 -3 -3z"/>
<path d="M3725 5080 c-13 -6 -15 -9 -5 -9 8 0 22 4 30 9 18 12 2 12 -25 0z"/>
<path d="M3870 5072 c0 -5 7 -9 15 -9 8 0 12 4 9 9 -3 4 -9 8 -15 8 -5 0 -9
-4 -9 -8z"/>
<path d="M3785 5060 c4 -6 11 -8 16 -5 14 9 11 15 -7 15 -8 0 -12 -5 -9 -10z"/>
<path d="M3618 5053 c-10 -2 -18 -8 -18 -13 0 -14 39 -7 44 7 6 13 3 14 -26 6z"/>
<path d="M3570 5025 c0 -8 5 -15 10 -15 6 0 10 7 10 15 0 8 -4 15 -10 15 -5 0
-10 -7 -10 -15z"/>
<path d="M5884 5409 c4 -13 11 -39 16 -57 10 -40 20 -53 20 -26 0 31 -20 93
-32 100 -8 5 -9 0 -4 -17z"/>
<path d="M2982 4550 c0 -14 2 -19 5 -12 2 6 2 18 0 25 -3 6 -5 1 -5 -13z"/>
<path d="M2941 4534 c0 -11 3 -14 6 -6 3 7 2 16 -1 19 -3 4 -6 -2 -5 -13z"/>
<path d="M2831 4423 c-1 -6 -11 -14 -23 -16 -18 -3 -17 -5 7 -6 21 -1 26 -4
16 -10 -8 -5 -9 -11 -3 -15 16 -10 23 10 13 36 -6 12 -10 18 -10 11z"/>
<path d="M2645 4320 c3 -5 8 -10 11 -10 2 0 4 5 4 10 0 6 -5 10 -11 10 -5 0
-7 -4 -4 -10z"/>
<path d="M3188 3693 c-37 -4 -38 -5 -38 -46 l0 -42 112 6 c345 18 718 -35
1053 -151 145 -50 161 -57 359 -157 152 -76 171 -83 182 -68 20 27 4 54 -55
94 -208 141 -613 284 -981 346 -93 16 -546 29 -632 18z"/>
<path d="M6610 3693 c-332 -25 -776 -161 -1110 -340 -120 -64 -136 -82 -111
-122 8 -12 36 -2 158 56 350 169 683 273 998 313 90 12 519 15 537 4 8 -5 9 2
5 26 -4 18 -7 41 -7 51 0 18 -11 19 -212 17 -117 -1 -233 -3 -258 -5z"/>
<path d="M3275 3444 c-131 -6 -135 -7 -135 -52 l0 -37 287 0 c239 0 305 -3
388 -19 82 -15 281 -63 381 -92 18 -5 24 0 33 27 6 17 11 35 11 39 0 16 -332
102 -465 119 -83 11 -372 20 -500 15z m752 -129 c0 -8 -4 -12 -9 -9 -5 3 -6
10 -3 15 9 13 12 11 12 -6z"/>
<path d="M6600 3439 c-52 -4 -129 -13 -170 -19 -71 -11 -398 -94 -408 -104 -7
-7 8 -76 16 -76 4 0 41 9 82 21 263 73 489 102 763 97 l217 -3 0 41 0 41 -137
6 c-159 8 -233 7 -363 -4z"/>
<path d="M4389 3164 c-6 -16 -7 -35 -2 -42 4 -7 46 -28 93 -46 47 -17 152 -66
234 -109 151 -78 165 -81 166 -35 0 39 -168 145 -336 211 -137 54 -142 54
-155 21z"/>
<path d="M3275 3130 c-66 -4 -125 -8 -131 -9 -7 0 -14 -16 -16 -35 l-4 -34
221 5 c125 3 269 1 332 -6 131 -12 148 -9 131 22 -7 12 -11 25 -10 29 1 4 -8
10 -21 13 -30 7 -304 25 -347 23 -19 -1 -89 -5 -155 -8z"/>
<path d="M6650 3134 c-134 -12 -327 -48 -340 -63 -3 -3 -14 -8 -25 -9 -44 -8
-144 -66 -133 -77 3 -3 46 3 95 14 221 48 306 56 596 56 l277 -1 0 32 c0 29
-3 32 -42 38 -55 8 -369 15 -428 10z"/>
<path d="M3485 2932 c21 -14 16 -59 -8 -71 l-22 -11 23 6 c18 4 22 1 22 -17 0
-18 -3 -20 -12 -11 -7 7 -17 12 -23 12 -5 0 -3 -5 5 -10 9 -6 10 -10 3 -10 -8
0 -12 -37 -12 -130 l-1 -130 25 0 25 0 0 190 c0 174 -1 190 -17 190 -11 0 -14
-3 -8 -8z m12 -239 c0 -92 -2 -108 -8 -74 -5 24 -6 48 -2 54 3 5 1 12 -5 16
-7 4 -8 19 -3 44 5 21 5 37 0 37 -10 0 -12 33 -3 43 17 16 21 -11 21 -120z"/>
<path d="M6728 2879 c-2 -52 0 -64 17 -75 11 -8 15 -14 9 -14 -5 0 -15 5 -21
11 -8 8 -11 -24 -12 -115 l-2 -126 31 0 30 0 0 190 0 190 -24 0 c-23 0 -24 -4
-28 -61z m39 -15 c-3 -3 -12 -4 -19 -1 -8 3 -5 6 6 6 11 1 17 -2 13 -5z m3
-46 c0 -19 -16 -5 -17 14 -2 18 0 20 7 8 5 -8 10 -18 10 -22z"/>
<path d="M3460 2905 c0 -8 5 -15 10 -15 6 0 10 7 10 15 0 8 -4 15 -10 15 -5 0
-10 -7 -10 -15z"/>
<path d="M4172 2908 c-7 -7 -12 -25 -12 -40 0 -22 6 -29 28 -34 134 -29 363
-114 538 -200 61 -30 116 -54 122 -54 14 0 24 33 16 53 -16 42 -265 164 -469
230 -167 53 -207 61 -223 45z"/>
<path d="M6045 2915 c-5 -2 -55 -16 -110 -31 -182 -49 -440 -158 -522 -221
-35 -25 -45 -69 -19 -79 8 -3 54 15 103 40 144 72 276 124 448 176 150 46 160
50 157 72 -5 46 -18 56 -57 43z"/>
<path d="M6407 2770 c-5 -21 -12 -30 -27 -30 -11 0 -20 -6 -20 -14 0 -9 -8
-12 -25 -9 -13 3 -23 10 -22 15 1 6 -5 13 -13 15 -12 4 -12 3 -2 -5 8 -5 13
-13 12 -18 -1 -5 13 -13 31 -18 28 -9 35 -7 55 18 13 15 24 38 24 52 0 33 -6
30 -13 -6z"/>
<path d="M4124 2565 c-3 -20 -5 -37 -3 -39 2 -2 63 -20 134 -41 183 -53 299
-97 456 -176 102 -51 139 -65 148 -56 36 36 -12 80 -182 165 -134 66 -209 95
-389 147 -152 44 -155 44 -164 0z"/>
<path d="M5960 2561 c-194 -58 -431 -157 -542 -227 -30 -19 -38 -30 -38 -54 0
-16 5 -32 10 -35 6 -3 70 23 143 59 160 79 336 144 541 201 52 14 57 18 52 38
-3 12 -6 30 -6 40 0 24 -16 22 -160 -22z"/>
<path d="M3098 2373 c-48 -4 -48 -4 -48 -41 l0 -37 262 0 c329 0 426 -8 651
-55 125 -25 177 -40 362 -102 152 -50 399 -158 467 -203 21 -14 42 -25 47 -25
9 0 31 31 31 44 0 19 -85 76 -201 136 -179 91 -412 173 -631 219 -232 50 -363
63 -633 66 -143 1 -281 1 -307 -2z"/>
<path d="M6625 2373 c-172 -15 -527 -88 -676 -139 -158 -54 -311 -119 -444
-187 -113 -58 -120 -64 -123 -94 -5 -47 12 -44 170 31 151 72 283 128 343 146
151 45 300 87 335 95 274 64 321 69 657 69 l303 1 0 36 c0 36 -1 36 -46 43
-47 6 -444 6 -519 -1z"/>
<path d="M2214 2071 c-90 -55 -86 -164 9 -210 58 -28 67 -27 115 17 38 36 42
43 42 88 0 56 -17 87 -60 109 -39 20 -69 19 -106 -4z m88 -68 c36 -32 12 -103
-35 -103 -49 0 -75 64 -40 102 20 22 51 23 75 1z"/>
<path d="M7932 2074 c-86 -43 -79 -165 11 -207 49 -24 80 -21 116 8 82 70 50
193 -54 209 -27 4 -50 1 -73 -10z m90 -61 c38 -34 12 -113 -38 -113 -49 0 -73
85 -32 114 29 20 47 20 70 -1z"/>
<path d="M3755 1730 c3 -6 22 -8 41 -6 26 4 39 -1 55 -17 16 -17 19 -18 13 -4
-3 10 -15 22 -25 27 -24 13 -92 13 -84 0z"/>
<path d="M2880 1690 c0 -5 7 -10 16 -10 8 0 12 5 9 10 -3 6 -10 10 -16 10 -5
0 -9 -4 -9 -10z"/>
<path d="M2756 1642 c-2 -4 4 -9 15 -9 11 -1 17 2 14 8 -7 11 -22 12 -29 1z"/>
<path d="M4680 1506 c0 -2 7 -6 15 -10 8 -3 15 -1 15 4 0 6 -7 10 -15 10 -8 0
-15 -2 -15 -4z"/>
<path d="M6400 1731 c-38 -5 -44 -9 -42 -26 2 -11 7 -24 12 -29 10 -10 30 1
30 16 0 6 -7 5 -17 -3 -15 -13 -15 -12 -3 11 l13 25 11 -25 c14 -34 13 -33 28
-24 20 13 42 11 54 -5 9 -12 12 -11 17 3 6 15 -7 21 -40 17 -8 -1 -10 5 -7 14
3 8 1 15 -6 15 -6 0 -8 5 -5 10 3 6 5 9 3 8 -2 0 -23 -4 -48 -7z m33 -44 c-3
-5 -9 -3 -14 4 -4 7 -5 17 -2 22 3 5 9 3 14 -4 4 -7 5 -17 2 -22z"/>
<path d="M6510 1727 c0 -4 -4 -5 -10 -2 -5 3 -10 1 -10 -5 0 -7 8 -9 19 -5 15
4 21 0 24 -17 l4 -23 2 23 c0 12 8 22 16 22 8 0 15 5 15 10 0 6 -13 9 -30 8
-16 -1 -30 -6 -30 -11z"/>
<path d="M7470 1660 c0 -5 5 -10 11 -10 5 0 7 5 4 10 -3 6 -8 10 -11 10 -2 0
-4 -4 -4 -10z"/>
<path d="M6025 1610 c4 -6 11 -8 16 -5 14 9 11 15 -7 15 -8 0 -12 -5 -9 -10z"/>
<path d="M5755 1580 c-3 -6 1 -7 9 -4 18 7 21 14 7 14 -6 0 -13 -4 -16 -10z"/>
<path d="M5565 1510 c-16 -7 -17 -9 -3 -9 9 -1 20 4 23 9 7 11 7 11 -20 0z"/>
<path d="M5520 1490 c-9 -6 -10 -10 -3 -10 6 0 15 5 18 10 8 12 4 12 -15 0z"/>
<path d="M5491 1454 c0 -11 3 -14 6 -6 3 7 2 16 -1 19 -3 4 -6 -2 -5 -13z"/>
<path d="M5435 1450 c-3 -6 1 -7 9 -4 18 7 21 14 7 14 -6 0 -13 -4 -16 -10z"/>
<path d="M4035 1661 c-3 -6 3 -9 14 -8 11 0 17 5 15 9 -7 11 -22 10 -29 -1z"/>
<path d="M1240 6519 c-33 -13 -88 -67 -107 -103 -22 -42 -18 -120 9 -175 41
-82 157 -123 245 -86 50 21 72 42 94 90 58 127 -26 273 -163 282 -29 1 -64 -2
-78 -8z m131 -105 c30 -27 44 -87 29 -124 -17 -41 -46 -60 -93 -60 -55 0 -97
43 -97 100 0 23 5 50 10 60 26 48 110 61 151 24z"/>
<path d="M8870 6508 c-116 -59 -144 -206 -57 -305 55 -62 123 -78 208 -48 54
19 86 49 110 100 76 165 -99 334 -261 253z m133 -79 c78 -40 76 -153 -4 -195
-41 -21 -74 -17 -108 12 -57 47 -50 137 13 175 35 22 67 24 99 8z"/>
<path d="M9001 6048 c-61 -13 -132 -85 -156 -159 -18 -51 -19 -140 -19 -1809
l-1 -1755 23 -55 c59 -143 203 -255 281 -217 45 22 38 43 -26 76 -71 35 -126
93 -162 170 l-26 56 -3 1668 c-1 917 0 1667 2 1667 3 0 22 -11 42 -25 131 -89
306 9 308 174 0 96 -71 193 -154 207 -19 3 -42 7 -50 9 -8 1 -35 -2 -59 -7z
m119 -104 c32 -19 60 -63 60 -93 0 -40 -28 -90 -62 -111 -67 -41 -137 -18
-173 56 -23 50 -13 95 31 133 40 36 98 42 144 15z"/>
<path d="M1104 6026 c-61 -38 -97 -96 -102 -165 -14 -188 199 -303 334 -180
l20 19 -4 -1662 c-4 -1635 -4 -1664 -24 -1723 -32 -95 -93 -165 -174 -200 -40
-16 -47 -28 -31 -50 18 -24 76 -22 132 5 77 37 149 138 174 245 9 37 12 454
14 1575 1 839 0 1629 -3 1755 l-5 230 -30 55 c-45 81 -97 114 -188 118 -62 3
-77 0 -113 -22z m173 -84 c55 -30 72 -128 31 -172 -13 -14 -22 -28 -21 -32 2
-4 -3 -5 -11 -2 -8 3 -17 1 -21 -5 -3 -6 -26 -11 -49 -11 -38 0 -48 5 -81 41
-35 39 -37 45 -33 91 10 97 94 138 185 90z"/>
<path d="M8416 3534 c-7 -18 0 -34 15 -34 5 0 9 11 9 25 0 28 -15 34 -24 9z"/>
<path d="M1743 3097 c-6 -10 52 -67 68 -67 7 0 3 8 -8 18 -25 22 -35 49 -20
55 7 3 2 4 -11 4 -13 -1 -26 -5 -29 -10z"/>
<path d="M1732 3058 c5 -15 28 -23 28 -10 0 5 -7 13 -16 16 -10 4 -14 1 -12
-6z"/>
<path d="M1745 3020 c3 -5 8 -10 11 -10 2 0 4 5 4 10 0 6 -5 10 -11 10 -5 0
-7 -4 -4 -10z"/>
<path d="M1744 2975 c1 -8 12 -24 24 -35 22 -21 37 -27 28 -11 -4 5 0 12 6 14
7 3 3 6 -9 6 -13 1 -22 4 -22 9 3 20 -2 32 -15 32 -8 0 -13 -7 -12 -15z"/>
<path d="M1745 2890 c-3 -5 -1 -10 6 -10 9 0 9 -3 0 -14 -8 -9 -8 -21 -2 -37
l10 -24 0 25 c-1 14 2 35 6 48 7 22 -8 32 -20 12z"/>
<path d="M1750 2787 c0 -8 7 -17 15 -21 8 -3 15 -3 15 0 0 3 -7 12 -15 20 -13
13 -15 13 -15 1z"/>
<path d="M1737 2754 c7 -3 9 -13 6 -22 -3 -9 -2 -14 2 -9 5 4 18 -1 29 -10 12
-10 16 -11 9 -4 -6 7 -9 20 -6 29 4 10 2 13 -5 8 -7 -4 -12 -2 -12 3 0 6 -8
11 -17 10 -10 0 -13 -3 -6 -5z"/>
<path d="M1844 2572 c2 -4 1 -14 -4 -22 -7 -12 -12 -12 -22 -2 -19 19 -24 15
-25 -23 l-1 -35 40 35 c21 20 44 33 51 30 7 -4 3 1 -7 9 -21 17 -41 22 -32 8z"/>
<path d="M1753 2363 c-15 -5 -17 -23 -4 -23 5 0 11 7 15 15 3 8 4 15 3 14 -1
0 -8 -3 -14 -6z"/>
<path d="M1746 2247 c3 -10 9 -15 12 -12 3 3 0 11 -7 18 -10 9 -11 8 -5 -6z"/>
<path d="M1733 2210 c-1 -11 2 -22 6 -24 4 -3 7 4 6 14 -2 27 -10 33 -12 10z"/>
<path d="M1735 2161 c-3 -5 -1 -12 5 -16 5 -3 10 1 10 9 0 18 -6 21 -15 7z"/>
<path d="M1743 2071 c1 -38 2 -39 19 -24 17 15 17 18 3 26 -8 4 -13 12 -10 17
3 5 1 11 -4 15 -6 3 -9 -11 -8 -34z"/>
<path d="M1833 1800 c-8 -12 -9 -21 -3 -25 6 -3 10 -1 10 4 0 6 12 11 27 11
26 0 26 1 7 15 -25 19 -27 19 -41 -5z"/>
<path d="M1870 1751 c0 -6 5 -13 10 -16 6 -3 10 1 10 9 0 9 -4 16 -10 16 -5 0
-10 -4 -10 -9z"/>
<path d="M1884 1655 c11 -8 22 -12 25 -9 6 6 -19 24 -34 24 -5 -1 -1 -7 9 -15z"/>
<path d="M1920 1630 c-9 -6 -10 -10 -3 -10 6 0 15 5 18 10 8 12 4 12 -15 0z"/>
<path d="M2026 1515 c4 -8 11 -15 16 -15 6 0 5 6 -2 15 -7 8 -14 15 -16 15 -2
0 -1 -7 2 -15z"/>
<path d="M2056 1492 c-3 -5 1 -9 9 -9 8 0 15 4 15 9 0 4 -4 8 -9 8 -6 0 -12
-4 -15 -8z"/>
<path d="M2010 1486 c0 -2 7 -9 15 -16 9 -7 15 -8 15 -2 0 5 -7 12 -15 16 -8
3 -15 4 -15 2z"/>
<path d="M7685 1480 c-3 -5 -1 -10 4 -10 6 0 11 5 11 10 0 6 -2 10 -4 10 -3 0
-8 -4 -11 -10z"/>
<path d="M8157 1461 c9 -11 22 -17 29 -14 15 5 19 22 7 24 -5 0 -18 2 -30 5
-21 4 -22 3 -6 -15z"/>
<path d="M7886 1443 c-19 -3 -25 -7 -17 -12 15 -10 61 -2 61 10 0 5 -3 8 -7 8
-5 -1 -21 -4 -37 -6z"/>
<path d="M7930 1425 c-8 -9 -8 -15 -2 -15 12 0 26 19 19 26 -2 2 -10 -2 -17
-11z"/>
</g>
</svg>
